<svg width="257" height="188" viewBox="0 0 257 188" fill="none" xmlns="http://www.w3.org/2000/svg">
<path d="M37.8377 26.367C-18.7864 81.2125 14.375 185.889 14.375 185.889L237.958 186.344C237.958 186.344 279.619 111.883 236.575 51.3809C196.827 -4.48749 81.2505 -15.6823 37.8377 26.367Z" fill="#DDEAFE"/>
<path d="M16.2188 184.511H86.3203V23.4688H16.2188V184.511Z" fill="#B5CEF9"/>
<path d="M58.8169 184.558H63.4005V13.957H58.8169V184.558Z" fill="#6D86C4"/>
<path d="M58.822 13.959C58.8223 14.3924 58.8532 184.489 58.8532 184.489H16.4233V23.3656L58.822 13.959Z" fill="#A4C1F4"/>
<path d="M21.2798 37.487L21.4887 82.523C21.6674 82.501 21.8441 82.4903 22.0191 82.4903C24.3367 82.4903 26.2801 84.3651 26.2912 86.7447L49.8382 83.8509C49.8286 81.6853 51.4426 79.8547 53.595 79.59L53.3832 32.452C53.0805 32.5162 52.7799 32.5469 52.4848 32.5469C50.1904 32.5469 48.2249 30.692 48.214 28.291L24.6698 33.287C24.6792 35.3123 23.2637 37.0661 21.2798 37.487ZM22.9313 38.6508C24.552 37.8781 25.7473 36.3968 26.1593 34.6513L46.9082 30.2485C47.6452 32.318 49.5043 33.8624 51.7448 34.1444L51.9435 78.3264C50.1754 79.0226 48.8414 80.5354 48.3738 82.3747L27.6428 84.9226C26.9776 82.9017 25.2498 81.3564 23.1275 80.9512L22.9313 38.6508Z" fill="#B5CEF9"/>
<path d="M21.353 119.555L21.4481 173.23C21.4507 173.23 21.4532 173.23 21.4557 173.23C23.8158 173.23 25.7312 175.138 25.7354 177.496L31.8882 177.485C31.8882 175.128 33.7996 173.216 36.1603 173.212V119.01C36.0348 119.021 35.9103 119.026 35.7867 119.026C33.4508 119.026 31.513 117.131 31.513 114.752L25.2651 115.29C25.2691 117.511 23.5687 119.364 21.353 119.555ZM23.0013 120.859C24.8106 120.196 26.208 118.673 26.7099 116.815L30.1369 116.52C30.7665 118.526 32.4379 120.076 34.5143 120.532V171.803C32.5716 172.368 31.037 173.903 30.4744 175.844L27.1457 175.85C26.5783 173.908 25.0383 172.376 23.0916 171.816L23.0013 120.859Z" fill="#B5CEF9"/>
<path d="M38.9038 118.036V173.19H38.9115C41.2746 173.19 43.1912 175.103 43.1912 177.464L48.2167 177.455C48.2346 175.11 50.1407 173.218 52.4887 173.214L52.9142 117.599C52.7887 117.61 52.6639 117.615 52.5404 117.615C50.192 117.615 48.2487 115.701 48.267 113.309L42.816 113.778C42.816 115.996 41.1168 117.845 38.9038 118.036ZM40.5498 119.348C42.3848 118.696 43.7739 117.184 44.267 115.303L46.8786 115.078C47.1557 115.985 47.6514 116.816 48.3395 117.508C49.1524 118.326 50.1595 118.878 51.2565 119.12L50.8534 171.803C48.9209 172.364 47.3866 173.887 46.8134 175.814L44.6039 175.818C44.039 173.873 42.4991 172.337 40.5498 171.777V119.348Z" fill="#B5CEF9"/>
<path d="M47.4043 99.3127C47.4043 101.162 48.1781 102.661 49.1329 102.661C50.0876 102.661 50.8615 101.162 50.8615 99.3127C50.8615 97.4637 50.0876 95.9648 49.1329 95.9648C48.1781 95.9648 47.4043 97.4637 47.4043 99.3127Z" fill="#F5D899"/>
<path d="M45.7856 98.1348V100.775H49.4081C49.5152 100.339 49.5747 99.8508 49.5747 99.3373C49.5747 98.9143 49.534 98.5083 49.4589 98.1348H45.7856Z" fill="#F79074"/>
<path d="M43.2915 99.3132C43.2915 102.1 44.4579 104.359 45.8968 104.359C47.3355 104.359 48.5018 102.1 48.5018 99.3132C48.5018 96.5265 47.3355 94.2676 45.8968 94.2676C44.4579 94.2676 43.2915 96.5265 43.2915 99.3132Z" fill="#F8E7C3"/>
<path d="M42.5923 99.3132C42.5923 102.1 43.7587 104.359 45.1975 104.359C46.6364 104.359 47.8026 102.1 47.8026 99.3132C47.8026 96.5265 46.6364 94.2676 45.1975 94.2676C43.7587 94.2676 42.5923 96.5265 42.5923 99.3132Z" fill="#F8E7C3"/>
<path d="M1.72946 187.831H254.223C254.864 187.831 255.383 187.073 255.383 186.137C255.383 185.202 254.864 184.443 254.223 184.443H1.72946C1.08872 184.443 0.569336 185.202 0.569336 186.137C0.569336 187.073 1.08872 187.831 1.72946 187.831Z" fill="#F3D9DA"/>
<path d="M151.067 104.032C148.798 103.542 148.788 103.939 148.5 103.868C148.158 103.784 145.059 100.35 145.059 100.35C145.059 100.35 135.857 90.2931 135.38 89.7319L131.189 76.2116L123.71 76.6426C123.71 76.6426 128.672 91.2153 129.068 91.9267C129.464 92.6381 143.569 104.734 144.775 105.84C144.775 105.84 145.697 107.704 146.315 108.854C146.934 110.004 148.051 110.801 148.277 111.097C148.31 111.14 149.122 112.078 150.445 112.956C151.584 113.712 150.876 112.464 150.876 112.464C150.876 112.464 149.036 110.677 149.21 110.552C149.344 110.455 150.288 111.493 151.54 112.343C151.862 112.562 152.18 112.776 152.474 112.971C153.246 113.483 153.805 113.147 153.088 112.481C152.836 112.246 152.405 111.866 152.058 111.639C151.682 111.395 151.423 111.047 151.141 110.792C150.582 110.287 150.168 109.925 150.202 109.913C150.247 109.897 150.212 109.716 150.561 109.938C150.981 110.204 151.738 110.97 152.388 111.312C152.757 111.506 153.501 111.96 153.501 111.96C153.501 111.96 154.861 112.648 154.949 112.454C155.139 112.031 154.362 111.45 153.823 111.252C153.553 110.949 152.756 110.495 152.756 110.495C152.756 110.495 151.37 109.209 151.559 109.004C151.635 108.923 152.569 109.459 153.594 109.943C154.678 110.455 155.485 110.77 155.628 110.579C155.856 110.275 155.021 109.799 155.021 109.799C155.021 109.799 154.283 109.38 154.05 109.222C153.777 109.036 153.004 108.417 153.004 108.417C153.004 108.417 150.42 106.135 150.616 105.956C150.811 105.777 151.491 105.508 151.703 105.592C151.915 105.676 152.213 106.036 152.425 106.121C152.637 106.205 153.111 106.343 153.247 106.089C153.383 105.835 152.418 104.822 152.418 104.822C152.418 104.822 151.722 104.174 151.067 104.032Z" fill="#FAB9A8"/>
<path d="M151.067 104.032C148.798 103.542 148.788 103.939 148.5 103.868C148.158 103.784 145.059 100.35 145.059 100.35C145.059 100.35 135.857 90.2931 135.38 89.7319L131.189 76.2116L123.71 76.6426C123.71 76.6426 128.672 91.2153 129.068 91.9267C129.464 92.6381 143.569 104.734 144.775 105.84C144.775 105.84 145.697 107.704 146.315 108.854C146.934 110.004 148.051 110.801 148.277 111.097C148.31 111.14 149.122 112.078 150.445 112.956C151.584 113.712 150.876 112.464 150.876 112.464C150.876 112.464 149.036 110.677 149.21 110.552C149.344 110.455 150.288 111.493 151.54 112.343C151.862 112.562 152.18 112.776 152.474 112.971C153.246 113.483 153.805 113.147 153.088 112.481C152.836 112.246 152.405 111.866 152.058 111.639C151.682 111.395 151.423 111.047 151.141 110.792C150.582 110.287 150.168 109.925 150.202 109.913C150.247 109.897 150.212 109.716 150.561 109.938C150.981 110.204 151.738 110.97 152.388 111.312C152.757 111.506 153.501 111.96 153.501 111.96C153.501 111.96 154.861 112.648 154.949 112.454C155.139 112.031 154.362 111.45 153.823 111.252C153.553 110.949 152.756 110.495 152.756 110.495C152.756 110.495 151.37 109.209 151.559 109.004C151.635 108.923 152.569 109.459 153.594 109.943C154.678 110.455 155.485 110.77 155.628 110.579C155.856 110.275 155.021 109.799 155.021 109.799C155.021 109.799 154.283 109.38 154.05 109.222C153.777 109.036 153.004 108.417 153.004 108.417C153.004 108.417 150.42 106.135 150.616 105.956C150.811 105.777 151.491 105.508 151.703 105.592C151.915 105.676 152.213 106.036 152.425 106.121C152.637 106.205 153.111 106.343 153.247 106.089C153.383 105.835 152.418 104.822 152.418 104.822C152.418 104.822 151.722 104.174 151.067 104.032Z" fill="black" fill-opacity="0.2"/>
<path d="M132.948 80.6669C132.948 80.6669 130.169 81.7205 129.075 81.9976C128.167 82.2281 124.059 82.5336 124.059 82.5336C124.059 82.5336 122.673 75.9425 122.198 72.7236C121.863 71.3761 124.139 68.8275 126.01 68.4772C127.711 68.1588 129.583 69.0114 130.442 71.1804C132.253 75.7519 132.948 80.6669 132.948 80.6669Z" fill="#A8E1D5"/>
<path d="M148 105.992C148.858 106.492 149.859 106.685 150.59 106.011C150.294 107.034 148.599 106.936 148 105.992Z" fill="#FEA17A"/>
<path d="M148 105.992C148.858 106.492 149.859 106.685 150.59 106.011C150.294 107.034 148.599 106.936 148 105.992Z" fill="black" fill-opacity="0.2"/>
<path d="M122.536 177.048C122.536 177.048 121.183 180.915 121.182 180.924C121.081 181.537 120.685 183.051 120.685 183.607C120.685 185.7 130.008 181.832 127.918 180.904C127.729 180.82 127.136 180.15 127.074 179.438C126.978 178.341 127.859 176.965 127.859 176.965L122.536 177.048Z" fill="#F9B8A7"/>
<path d="M122.536 177.048C122.536 177.048 121.183 180.915 121.182 180.924C121.081 181.537 120.685 183.051 120.685 183.607C120.685 185.7 130.008 181.832 127.918 180.904C127.729 180.82 127.136 180.15 127.074 179.438C126.978 178.341 127.859 176.965 127.859 176.965L122.536 177.048Z" fill="black" fill-opacity="0.2"/>
<path d="M133.841 102.676L137.177 112.949C137.177 112.949 140.113 143.551 139.695 145.659C138.676 150.801 128.38 178.805 128.38 178.805L121.783 177.967L129.023 144.856L116.96 113.752L133.841 102.676Z" fill="#586D9E"/>
<path d="M120.155 184.3L121.222 180.887C121.222 180.887 123.464 181.847 124.585 181.687C125.706 181.527 127.895 180.887 127.895 180.887C132.369 182.377 136.035 183.101 135.368 184.3H120.155Z" fill="#4DA494"/>
<path d="M106.46 173.634C106.46 173.634 104.15 177.022 104.147 177.03C103.89 177.596 103.115 178.957 102.971 179.495C102.427 181.517 112.433 180.185 110.656 178.75C110.495 178.62 110.096 177.819 110.221 177.115C110.414 176.03 111.622 174.928 111.622 174.928L106.46 173.634Z" fill="#F9B8A7"/>
<path d="M106.46 173.634C106.46 173.634 104.15 177.022 104.147 177.03C103.89 177.596 103.115 178.957 102.971 179.495C102.427 181.517 112.433 180.185 110.656 178.75C110.495 178.62 110.096 177.819 110.221 177.115C110.414 176.03 111.622 174.928 111.622 174.928L106.46 173.634Z" fill="black" fill-opacity="0.2"/>
<path d="M136.66 104.711L137.215 115.496C137.215 115.496 132.109 145.817 131.159 147.746C128.842 152.451 111.639 176.847 111.639 176.847L105.49 174.335L121.068 144.217L117.495 111.055L136.66 104.711Z" fill="#586D9E"/>
<path d="M102.279 180.027L104.197 177.002C104.197 177.002 106.113 178.51 107.237 178.644C108.361 178.779 110.641 178.726 110.641 178.726C114.576 181.322 117.928 182.968 116.973 183.956L102.279 180.027Z" fill="#4DA494"/>
<path d="M137.283 112.733C131.169 115.142 116.8 113.751 116.8 113.751C116.8 113.751 117.711 107.486 118.032 103.255C118.354 99.0266 115.658 92.3314 114.519 80.7133C114.277 78.2494 115.243 71.5957 118.702 69.5074C119.918 68.7744 120.661 68.678 120.661 68.678C120.693 68.6773 125.421 67.7146 127.833 68.4568C128.518 69.0667 130.654 70.8277 131.884 72.8872C133.499 75.6147 134.824 78.7601 135.136 79.7947C136.53 84.4019 137.122 97.7417 137.122 100.257C137.122 102.773 137.283 112.733 137.283 112.733Z" fill="#60CBB8"/>
<path d="M131.884 72.8887C131.88 72.8919 131.874 72.892 131.867 72.8951C129.519 73.6243 120.658 68.7055 120.658 68.7055L120.661 68.6796L121.735 61.6627C121.735 61.6627 127.266 60.362 126.945 62.357C126.623 64.349 127.694 68.3326 127.694 68.3326C127.73 68.3684 127.775 68.41 127.833 68.4584C128.518 69.0684 130.654 70.8291 131.884 72.8887Z" fill="#F9B8A7"/>
<path d="M131.884 72.8887C131.88 72.8919 131.874 72.892 131.867 72.8951C129.519 73.6243 120.658 68.7055 120.658 68.7055L120.661 68.6796L121.735 61.6627C121.735 61.6627 127.266 60.362 126.945 62.357C126.623 64.349 127.694 68.3326 127.694 68.3326C127.73 68.3684 127.775 68.41 127.833 68.4584C128.518 69.0684 130.654 70.8291 131.884 72.8887Z" fill="black" fill-opacity="0.2"/>
<path d="M126.944 62.3555C127.266 60.3621 121.734 61.6633 121.734 61.6633L121.645 62.2471C121.807 62.6376 122.005 62.9721 122.245 63.2284C123.481 64.5474 125.412 65.3395 127.082 65.3995C126.915 64.3249 126.812 63.1728 126.944 62.3555Z" fill="#FEA17A"/>
<path d="M126.944 62.3555C127.266 60.3621 121.734 61.6633 121.734 61.6633L121.645 62.2471C121.807 62.6376 122.005 62.9721 122.245 63.2284C123.481 64.5474 125.412 65.3395 127.082 65.3995C126.915 64.3249 126.812 63.1728 126.944 62.3555Z" fill="black" fill-opacity="0.2"/>
<path d="M175.84 100.367C177.038 100.817 178.627 101.485 178.627 101.485C178.833 100.991 174.877 100.147 174.322 98.9441C174.025 98.3002 178.862 100.67 179.197 100.387C179.337 100.27 173.727 98.4466 173.986 98.0064C174.203 97.6365 179.884 99.6361 179.916 99.3593C179.959 98.9747 174.997 97.9809 175.441 97.4273C175.669 97.1437 181.691 98.7704 182.341 98.8651C183.136 98.8651 180.259 96.9136 181.239 96.6527C182.57 96.2982 185.913 100.125 186.174 100.179C186.931 100.335 193.373 101.123 196.527 99.0629C199.075 97.3991 201.546 94.8402 202.152 92.6371C202.745 90.477 203.567 87.3917 202.864 85.0117C205.734 84.5755 208.518 84.4754 211.43 84.8229C211.607 88.3971 207.321 102.56 205.53 103.725C201.587 106.289 194.554 105.661 189.596 105.254C185.6 104.925 181.686 104.139 178.087 102.315C177.282 101.907 176.204 101.45 175.582 100.741C175.421 100.558 175.611 100.281 175.84 100.367Z" fill="#F57B2C"/>
<path d="M175.84 100.367C177.038 100.817 178.627 101.485 178.627 101.485C178.833 100.991 174.877 100.147 174.322 98.9441C174.025 98.3002 178.862 100.67 179.197 100.387C179.337 100.27 173.727 98.4466 173.986 98.0064C174.203 97.6365 179.884 99.6361 179.916 99.3593C179.959 98.9747 174.997 97.9809 175.441 97.4273C175.669 97.1437 181.691 98.7704 182.341 98.8651C183.136 98.8651 180.259 96.9136 181.239 96.6527C182.57 96.2982 185.913 100.125 186.174 100.179C186.931 100.335 193.373 101.123 196.527 99.0629C199.075 97.3991 201.546 94.8402 202.152 92.6371C202.745 90.477 203.567 87.3917 202.864 85.0117C205.734 84.5755 208.518 84.4754 211.43 84.8229C211.607 88.3971 207.321 102.56 205.53 103.725C201.587 106.289 194.554 105.661 189.596 105.254C185.6 104.925 181.686 104.139 178.087 102.315C177.282 101.907 176.204 101.45 175.582 100.741C175.421 100.558 175.611 100.281 175.84 100.367Z" fill="black" fill-opacity="0.2"/>
<path d="M204.656 73.0143C202.521 75.2169 200.364 88.4142 201.158 91.5596C202.528 94.1147 208.734 94.5557 210.741 95.7677C215.37 93.8669 212.199 85.3424 212.199 85.3424L213.887 68.7384C213.887 68.7384 208.724 68.8188 204.656 73.0143Z" fill="#4661E4"/>
<path d="M204.656 73.0143C202.521 75.2169 200.364 88.4142 201.158 91.5596C202.528 94.1147 208.734 94.5557 210.741 95.7677C215.37 93.8669 212.199 85.3424 212.199 85.3424L213.887 68.7384C213.887 68.7384 208.724 68.8188 204.656 73.0143Z" fill="black" fill-opacity="0.2"/>
<path d="M224.545 176.522C224.545 176.522 224.562 176.685 224.562 176.955C224.563 177.768 224.404 179.559 223.132 180.88C221.437 182.642 221.426 184.833 223.218 185.208C225.01 185.582 229.282 185.088 229.282 185.088C229.282 185.088 230.248 183.412 229.589 178.935C228.929 174.458 228.546 169.548 228.546 169.548L223.678 168.789L224.545 176.522Z" fill="#FF9163"/>
<path d="M224.545 176.522C224.545 176.522 224.562 176.685 224.562 176.955C224.563 177.768 224.404 179.559 223.132 180.88C221.437 182.642 221.426 184.833 223.218 185.208C225.01 185.582 229.282 185.088 229.282 185.088C229.282 185.088 230.248 183.412 229.589 178.935C228.929 174.458 228.546 169.548 228.546 169.548L223.678 168.789L224.545 176.522Z" fill="black" fill-opacity="0.2"/>
<path d="M231.483 113.634C234.456 124.486 230.765 173.167 230.765 173.167L221.867 172.559C221.867 172.559 219.843 124.131 218.375 122.665C218.201 122.492 218.344 119.795 218.575 116.641C219.015 110.632 226.394 107.877 230.579 112.218C231.036 112.692 231.356 113.168 231.483 113.634Z" fill="#333486"/>
<path d="M229.637 111.381C230.591 112.126 231.28 112.892 231.483 113.633C234.456 124.485 230.766 173.166 230.766 173.166L228.562 173.015C228.686 171.255 231.881 125.434 229.637 111.381Z" fill="#29296C"/>
<path d="M230.762 176.854C228.482 177.593 222.995 177.409 221.684 176.854C220.476 176.341 220.394 171.853 221.684 171.61C223.497 171.268 228.634 171.306 230.762 171.61C232.062 171.795 232.011 176.449 230.762 176.854Z" fill="#7E89B4"/>
<path d="M223.591 178.426C223.591 178.426 221.785 180.873 221.362 181.894C220.94 182.915 221.031 185.455 221.362 185.716C224.283 188.018 229.819 185.946 229.819 185.946C229.819 185.946 230.2 184.258 230.392 182.186C230.584 180.114 230.476 178.184 229.819 178.184C229.162 178.184 229.047 179.27 227.549 178.963C226.05 178.656 225.128 178.119 223.591 178.426Z" fill="#29286C"/>
<path d="M230.279 183.219C229.153 183.658 227.625 184.171 226.204 184.374C224.687 184.59 222.645 183.916 221.104 183.238C221.024 184.324 221.138 185.54 221.362 185.717C224.283 188.019 229.819 185.947 229.819 185.947C229.819 185.947 230.08 184.791 230.279 183.219Z" fill="#FFFEFF"/>
<path d="M230.279 183.219C226.089 184.476 225.319 184.698 221.104 183.238C221.806 183.615 222.543 183.927 223.307 184.169C224.927 184.67 225.883 184.626 226.894 184.4C228.099 184.132 229.234 183.723 230.279 183.219Z" fill="#A88E63"/>
<path d="M210.494 173.571C211.126 175.555 210.502 177.739 208.882 179.05C208.323 179.502 207.673 179.926 206.939 180.247C204.103 181.485 200.43 181.206 199.918 183.749C199.406 186.292 217.9 183.036 217.9 183.036C217.9 183.036 216.617 176.851 216.534 175.815C216.451 174.779 216.647 170.975 216.647 170.975L209.505 170.463L210.494 173.571Z" fill="#FF9163"/>
<path d="M210.494 173.571C211.126 175.555 210.502 177.739 208.882 179.05C208.323 179.502 207.673 179.926 206.939 180.247C204.103 181.485 200.43 181.206 199.918 183.749C199.406 186.292 217.9 183.036 217.9 183.036C217.9 183.036 216.617 176.851 216.534 175.815C216.451 174.779 216.647 170.975 216.647 170.975L209.505 170.463L210.494 173.571Z" fill="black" fill-opacity="0.2"/>
<path d="M217.584 122.669C217.226 122.915 216.52 123.233 216.393 123.647C215.478 126.636 210.244 144.03 211.299 147.839C212.454 152.009 217.61 174.352 217.61 174.352L210.144 174.65C210.144 174.65 199.907 157.581 199.907 145.665C199.907 133.749 201.572 117.953 206.409 111.525C206.63 111.233 206.936 110.947 207.31 110.669C212.177 107.05 219.027 111.061 218.365 117.084C218.034 120.089 217.722 122.575 217.584 122.669Z" fill="#333486"/>
<path d="M215.403 174.333C215.403 174.333 210.247 150.509 209.092 146.062C208.253 142.833 211.39 130.445 213.171 123.903C213.706 121.939 216.068 121.149 217.682 122.393C217.682 122.393 210.144 143.668 211.299 147.839C212.455 152.01 217.61 174.353 217.61 174.353L210.144 174.65C210.144 174.65 210.125 174.619 210.09 174.559L215.403 174.333Z" fill="#29296C"/>
<path d="M217.232 174.848C214.952 175.587 209.464 175.403 208.154 174.848C206.946 174.335 206.864 169.847 208.154 169.604C209.966 169.262 215.104 169.3 217.232 169.604C218.531 169.789 218.48 174.443 217.232 174.848Z" fill="#7E89B4"/>
<path d="M217.149 178.659C217.149 178.659 217.375 179.641 217.893 181.306C218.411 182.971 218.088 184.539 218.088 184.539C218.088 184.539 200.765 185.359 200.064 184.811C199.363 184.263 199.723 182.269 199.9 182.092C200.077 181.915 202.275 181.322 203.403 180.628C204.53 179.933 208.381 177.305 209.682 177.411C210.983 177.517 211.584 178.477 214.054 178.587C216.525 178.697 216.535 178.18 217.149 178.659Z" fill="#29286C"/>
<path d="M200.064 184.811C200.765 185.359 218.088 184.539 218.088 184.539C218.088 184.539 218.3 183.51 218.105 182.234C209.062 183.907 199.9 182.092 199.9 182.092C199.723 182.268 199.363 184.263 200.064 184.811Z" fill="#FFFEFF"/>
<path d="M218.105 182.234C211.93 183.466 205.084 183.205 199.9 182.092C209.329 183.514 216.932 182.412 216.406 182.465C216.429 182.462 218.219 182.219 218.105 182.234Z" fill="#A88E63"/>
<path d="M204.7 114.435C205.22 113.329 205.788 112.35 206.409 111.525C206.665 111.185 207.037 110.854 207.495 110.535C208.732 111.166 210.443 111.854 212.808 112.58C219.941 114.771 227.632 113.603 230.827 112.492C231.152 112.875 231.38 113.258 231.483 113.634C231.741 114.575 231.949 115.801 232.113 117.255C230.518 118.44 221.245 121.303 212.808 118.622C207.453 116.92 205.458 115.889 204.7 114.435Z" fill="#29296C"/>
<path d="M220.631 68.3671C220.631 68.3671 228.051 67.9862 231.084 71.5747C234.116 75.1634 233.869 112.864 232.641 113.916C231.413 114.968 220.868 118.145 212.492 115.671C204.116 113.196 203.583 109.798 203.583 109.798C203.583 109.798 205.811 84.4441 205.811 77.5145C205.811 70.5848 212.587 66.5028 220.631 68.3671Z" fill="#4661E4"/>
<path d="M221.27 68.4447C222.88 69.9216 223.004 69.9498 221.333 71.8875C219.661 73.8251 214.126 76.0283 213.336 75.656C211.377 74.7324 213.2 71.6491 214.505 69.4314C214.912 68.7388 219.661 66.9679 221.27 68.4447Z" fill="#4661E4"/>
<path d="M221.27 68.4447C222.88 69.9216 223.004 69.9498 221.333 71.8875C219.661 73.8251 214.126 76.0283 213.336 75.656C211.377 74.7324 213.2 71.6491 214.505 69.4314C214.912 68.7388 219.661 66.9679 221.27 68.4447Z" fill="black" fill-opacity="0.2"/>
<path d="M214.079 62.8608C214.079 62.8608 213.646 73.064 214.079 73.5108C214.512 73.9577 220.722 71.7979 221.264 70.5318C221.805 69.2657 219.001 50.8203 219.001 50.8203L214.079 62.8608Z" fill="#F57B2C"/>
<path d="M214.079 62.8608C214.079 62.8608 213.646 73.064 214.079 73.5108C214.512 73.9577 220.722 71.7979 221.264 70.5318C221.805 69.2657 219.001 50.8203 219.001 50.8203L214.079 62.8608Z" fill="black" fill-opacity="0.2"/>
<path d="M213.892 69.5886C214.99 69.3911 215.935 69.1123 216.212 68.7993C218.745 65.9419 216.847 61.3054 217.046 60.0996C217.442 57.7002 218.25 55.7176 217.845 53.6484L214.079 62.8605C214.079 62.8605 213.923 66.5497 213.892 69.5886Z" fill="#C56323"/>
<path d="M222.111 129.949H243.901C244.313 129.949 244.648 129.615 244.648 129.203V115.078C244.648 114.666 244.313 114.332 243.901 114.332H222.111C221.698 114.332 221.364 114.666 221.364 115.078V129.203C221.364 129.615 221.698 129.949 222.111 129.949Z" fill="#60CBB8"/>
<path d="M222.252 128.151H241.974V116.131H222.252V128.151Z" fill="#FFFEFF"/>
<path d="M221.287 125.578H222.524C222.757 125.578 222.946 125.389 222.946 125.157V119.126C222.946 118.893 222.757 118.705 222.524 118.705H221.287C221.055 118.705 220.866 118.893 220.866 119.126V125.157C220.866 125.389 221.055 125.578 221.287 125.578Z" fill="#4661E4"/>
<path d="M221.287 125.578H222.524C222.757 125.578 222.946 125.389 222.946 125.157V119.126C222.946 118.893 222.757 118.705 222.524 118.705H221.287C221.055 118.705 220.866 118.893 220.866 119.126V125.157C220.866 125.389 221.055 125.578 221.287 125.578Z" fill="black" fill-opacity="0.1"/>
<path d="M227.176 106.555C227.831 104.735 227.13 98.9445 226.383 94.7556C225.799 94.8672 225.237 94.9998 224.707 95.1528C223.81 92.382 223.02 85.1909 222.994 80.6701C222.944 72.1897 227.244 69.7234 227.244 69.7234C228.096 69.5291 229.459 70.3298 231.591 72.5459C233.456 77.6379 233.613 96.8221 233.077 106.259C232.906 109.282 226.57 108.238 227.176 106.555Z" fill="#4661E4"/>
<path d="M227.176 106.555C227.831 104.735 227.13 98.9445 226.383 94.7556C225.799 94.8672 225.237 94.9998 224.707 95.1528C223.81 92.382 223.02 85.1909 222.994 80.6701C222.944 72.1897 227.244 69.7234 227.244 69.7234C228.096 69.5291 229.459 70.3298 231.591 72.5459C233.456 77.6379 233.613 96.8221 233.077 106.259C232.906 109.282 226.57 108.238 227.176 106.555Z" fill="black" fill-opacity="0.2"/>
<path d="M228.965 106.555C228.175 108.958 232.089 111.572 235.117 110.728C237.71 110.004 239.624 106.281 237.702 102.906C235.231 98.5645 238.885 91.092 236.955 86.2637C235.227 89.4793 227.048 87.47 227.517 90.9984C228.263 94.0124 229.79 104.048 228.965 106.555Z" fill="#F57B2C"/>
<path d="M228.965 106.555C228.175 108.958 232.089 111.572 235.117 110.728C237.71 110.004 239.624 106.281 237.702 102.906C235.231 98.5645 238.885 91.092 236.955 86.2637C235.227 89.4793 227.048 87.47 227.517 90.9984C228.263 94.0124 229.79 104.048 228.965 106.555Z" fill="black" fill-opacity="0.2"/>
<path d="M227.016 69.8023C227.016 69.8023 224.492 71.7202 224.538 80.2005C224.562 84.7214 225.891 92.3815 226.71 95.1522C230.109 94.0796 234.902 94.0101 238.373 95.1522C238.84 91.4524 237.896 83.557 237.307 81.0061C235.858 74.7332 230.622 68.3671 227.016 69.8023Z" fill="#4661E4"/>
<path d="M227.176 106.552C227.423 105.865 233.102 110.926 232.383 111.541C231.891 111.963 230.929 114.607 228.448 115.132C227.803 112.604 226.569 108.235 227.176 106.552Z" fill="#4661E4"/>
<path d="M227.176 106.552C227.423 105.865 233.102 110.926 232.383 111.541C231.891 111.963 230.929 114.607 228.448 115.132C227.803 112.604 226.569 108.235 227.176 106.552Z" fill="black" fill-opacity="0.2"/>
<path d="M228.965 106.553C227.498 111.013 232.666 120.661 230.567 123.748C228.468 126.836 229.524 130.077 232.068 131.685C234.612 133.292 237.774 131.04 237.519 129.816C237.264 128.592 236.578 125.298 236.264 123.792C235.984 122.446 240.681 112.665 238.708 105.378C238.59 104.943 237.589 102.231 233.564 102.508C229.539 102.785 229.198 105.847 228.965 106.553Z" fill="#F57B2C"/>
<path d="M228.965 106.553C227.498 111.013 232.666 120.661 230.567 123.748C228.468 126.836 229.524 130.077 232.068 131.685C234.612 133.292 237.774 131.04 237.519 129.816C237.264 128.592 236.578 125.298 236.264 123.792C235.984 122.446 240.681 112.665 238.708 105.378C238.59 104.943 237.589 102.231 233.564 102.508C229.539 102.785 229.198 105.847 228.965 106.553Z" fill="black" fill-opacity="0.2"/>
<path d="M211.821 51.7859C211.821 51.7859 210.44 55.342 210.178 58.3336C209.915 61.3254 209.531 66.5122 211.652 66.6971C213.773 66.8821 216.865 66.5634 217.944 62.393C219.022 58.2225 218.725 53.4907 216.7 52.2113C214.675 50.9318 211.821 51.7859 211.821 51.7859Z" fill="#FF9163"/>
<path d="M211.821 51.7859C211.821 51.7859 210.44 55.342 210.178 58.3336C209.915 61.3254 209.531 66.5122 211.652 66.6971C213.773 66.8821 216.865 66.5634 217.944 62.393C219.022 58.2225 218.725 53.4907 216.7 52.2113C214.675 50.9318 211.821 51.7859 211.821 51.7859Z" fill="black" fill-opacity="0.2"/>
<path d="M212.413 54.5548C213.004 54.3693 213.55 54.9298 213.386 55.5444C213.123 56.5293 213.07 57.6288 213.987 57.939C215.751 58.5358 216.642 58.1705 216.91 58.5007C217.178 58.8307 215.889 60.3545 216.714 60.7331C217.54 61.1118 218.254 58.2429 219.008 58.3086C219.762 58.3743 219.558 62.583 218.557 63.4501C217.556 64.3172 218.492 65.694 219.705 65.7998C220.918 65.9055 219.418 67.3085 221.007 67.9584C222.596 68.6082 223.907 68.7225 224.613 66.7048C225.319 64.6872 224.895 63.4913 224.895 63.4913C224.895 63.4913 226.736 61.6863 226.481 59.7213C226.34 58.629 225.423 56.6066 225.423 56.6066C225.423 56.6066 224.782 54.2444 224.669 52.9053C224.555 51.566 221.42 49.9635 219.214 49.5327C217.009 49.1019 218.242 47.8458 216.374 47.683C214.505 47.5201 214.032 49.9628 214.032 49.9628C214.032 49.9628 211.504 48.1368 211.373 48.2015C209.737 49.0111 210.882 50.7832 210.882 50.7832C210.882 50.7832 209.592 50.8071 209.184 52.4418C208.776 54.0763 209.769 55.1854 211.521 54.7928C211.853 54.7185 212.15 54.6373 212.413 54.5548Z" fill="#060614"/>
<path d="M211.094 48.366C211.419 48.4417 211.843 48.5835 212.348 48.7832C213.108 49.2968 214.031 49.9635 214.031 49.9635C214.031 49.9635 217.428 51.2411 219.341 52.3655C221.792 53.8066 223.927 55.2238 225.347 56.3179C225.394 56.5005 225.423 56.6084 225.423 56.6084C225.423 56.6084 225.761 57.3522 226.057 58.1813C224.503 57.6972 221.513 56.2354 218.206 54.291C214.471 52.0954 210.858 48.5329 211.094 48.366Z" fill="#060614"/>
<path d="M217.845 57.9766C217.845 57.9766 218.892 56.3972 219.614 57.3923C220.335 58.3876 219.57 62.2629 218.337 62.1554C217.104 62.0479 217.316 58.987 217.845 57.9766Z" fill="#FF9163"/>
<path d="M217.845 57.9766C217.845 57.9766 218.892 56.3972 219.614 57.3923C220.335 58.3876 219.57 62.2629 218.337 62.1554C217.104 62.0479 217.316 58.987 217.845 57.9766Z" fill="black" fill-opacity="0.2"/>
<path d="M213.377 49.0088C215.356 45.6512 219.711 44.5461 223.104 46.5404C226.497 48.5349 227.643 52.8734 225.664 56.2311C225.588 56.3604 225.507 56.4851 225.424 56.6077L213.164 49.4013C213.231 49.2692 213.301 49.1382 213.377 49.0088Z" fill="#4661E4"/>
<path d="M215.896 50.8392C215.963 50.7073 216.033 50.5761 216.109 50.4468C217.763 47.6421 221.073 46.4092 224.096 47.2415C223.791 46.9845 223.46 46.7496 223.104 46.5404C219.711 44.546 215.356 45.6512 213.377 49.0087C213.301 49.138 213.231 49.2692 213.164 49.4012L225.424 56.6075C225.451 56.5677 215.896 50.8392 215.896 50.8392Z" fill="#4661E4"/>
<path d="M215.896 50.8392C215.963 50.7073 216.033 50.5761 216.109 50.4468C217.763 47.6421 221.073 46.4092 224.096 47.2415C223.791 46.9845 223.46 46.7496 223.104 46.5404C219.711 44.546 215.356 45.6512 213.377 49.0087C213.301 49.138 213.231 49.2692 213.164 49.4012L225.424 56.6075C225.451 56.5677 215.896 50.8392 215.896 50.8392Z" fill="white" fill-opacity="0.2"/>
<path d="M207.674 46.3552C207.835 46.0816 214.259 49.3768 218.34 51.7759C222.421 54.1749 225.598 56.3415 225.437 56.6149C225.276 56.8885 218.358 54.6152 214.276 52.2161C210.195 49.8171 207.513 46.6287 207.674 46.3552Z" fill="#4661E4"/>
<path d="M207.674 46.3552C207.835 46.0816 214.259 49.3768 218.34 51.7759C222.421 54.1749 225.598 56.3415 225.437 56.6149C225.276 56.8885 218.358 54.6152 214.276 52.2161C210.195 49.8171 207.513 46.6287 207.674 46.3552Z" fill="black" fill-opacity="0.2"/>
<path d="M164 111.05C162.886 111.314 162.545 112.623 163.447 113.113C163.659 113.229 163.912 113.253 164.147 113.197C165.262 112.934 165.604 111.624 164.7 111.134C164.488 111.019 164.235 110.994 164 111.05Z" fill="#0B5B66"/>
<path d="M163.908 111.809L163.728 112.319L164.269 112.172C164.975 111.982 171.161 110.229 170.956 107.532C170.897 106.735 170.417 106.28 169.642 106.282C167.859 106.287 165.028 108.652 163.908 111.809ZM169.555 106.909C169.93 106.908 170.162 107.071 170.255 107.405C170.277 107.481 170.291 107.566 170.298 107.661C170.422 109.3 166.738 110.786 164.739 111.405C165.914 108.686 168.34 106.912 169.555 106.909Z" fill="#0B5B66"/>
<path d="M164.353 111.856L164.546 112.314C164.721 112.73 164.938 113.117 165.184 113.468C166.424 115.237 168.423 116.142 169.741 115.777C170.441 115.583 170.864 115.051 170.901 114.317C171.023 111.868 165.524 111.845 164.896 111.851L164.353 111.856ZM165.388 112.487C166.894 112.538 169.397 112.837 170.072 113.799C170.191 113.969 170.253 114.159 170.242 114.373C170.22 114.807 170.023 115.07 169.638 115.176C168.594 115.465 166.481 114.527 165.388 112.487Z" fill="#0B5B66"/>
<path d="M133.47 114.584L150.218 138.466C151.135 139.773 152.939 140.091 154.248 139.176L171.123 127.378C172.432 126.463 172.75 124.661 171.833 123.354L155.085 99.4727C154.169 98.1654 152.364 97.8472 151.056 98.7622L134.18 110.561C132.871 111.476 132.554 113.277 133.47 114.584Z" fill="#F6D152"/>
<path d="M154.742 98.9783L161.014 107.923L139.397 123.037L133.124 114.092C132.399 113.058 133.152 111.281 134.807 110.125L150.432 99.2001C152.087 98.0432 154.016 97.944 154.742 98.9783Z" fill="#F1AF32"/>
<path d="M166.652 115.963L167.147 116.669C162.925 125.311 149.2 131.421 146.161 132.688L145.775 132.137C147.827 131.291 162.885 124.828 166.612 116.04C166.623 116.014 166.636 115.988 166.652 115.963Z" fill="#0B5B66"/>
<path d="M135.862 117.825C135.837 117.848 135.811 117.869 135.784 117.887L135.417 117.364C146.654 107.211 154.362 104.356 157.953 103.555L158.407 104.202C155.346 104.787 147.522 107.272 135.862 117.825Z" fill="#0B5B66"/>
<path d="M144.363 115.075C142.084 114.301 142.048 114.49 141.757 114.383C141.415 114.257 138.434 110.376 138.434 110.376C138.434 110.376 129.573 98.9956 129.116 98.3648L125.507 84.0472L117.896 83.5904C117.896 83.5904 122.237 99.0757 122.605 99.8502C122.973 100.625 136.713 114.677 137.883 115.951C137.883 115.951 138.73 117.967 139.303 119.216C139.876 120.465 140.972 121.414 141.187 121.742C141.219 121.791 141.998 122.846 143.299 123.902C144.419 124.812 143.76 123.452 143.76 123.452C143.76 123.452 141.978 121.405 142.16 121.298C142.301 121.216 143.209 122.388 144.439 123.408C144.755 123.67 145.068 123.927 145.357 124.162C146.117 124.777 146.7 124.501 146.004 123.735C145.759 123.464 145.34 123.024 144.998 122.751C144.629 122.456 144.382 122.069 144.109 121.775C143.566 121.191 143.192 120.806 143.228 120.798C143.274 120.787 143.216 120.564 143.56 120.832C143.974 121.155 144.706 122.028 145.35 122.456C145.714 122.699 146.448 123.252 146.448 123.252C146.448 123.252 147.616 123.657 147.676 123.598C148 123.275 147.347 122.834 146.809 122.567C146.55 122.225 145.763 121.665 145.763 121.665C145.763 121.665 144.416 120.184 144.618 119.999C144.695 119.927 145.497 120.76 146.553 121.428C147.761 122.193 148.447 122.059 148.607 121.874C148.853 121.591 148.093 121.226 148.093 121.226C148.093 121.226 147.05 120.729 146.821 120.539C146.552 120.317 143.599 116.93 143.806 116.77C144.013 116.611 144.555 116.723 144.766 116.835C144.977 116.946 145.342 117.191 145.553 117.303C145.764 117.414 146.213 117.237 146.363 116.994C146.514 116.751 145.773 116.096 145.773 116.096C145.773 116.096 145.022 115.298 144.363 115.075Z" fill="#FAB9A8"/>
<path d="M144.363 115.075C142.084 114.301 142.048 114.49 141.757 114.383C141.415 114.257 138.434 110.376 138.434 110.376C138.434 110.376 129.573 98.9956 129.116 98.3648L125.507 84.0472L117.896 83.5904C117.896 83.5904 122.237 99.0757 122.605 99.8502C122.973 100.625 136.713 114.677 137.883 115.951C137.883 115.951 138.73 117.967 139.303 119.216C139.876 120.465 140.972 121.414 141.187 121.742C141.219 121.791 141.998 122.846 143.299 123.902C144.419 124.812 143.76 123.452 143.76 123.452C143.76 123.452 141.978 121.405 142.16 121.298C142.301 121.216 143.209 122.388 144.439 123.408C144.755 123.67 145.068 123.927 145.357 124.162C146.117 124.777 146.7 124.501 146.004 123.735C145.759 123.464 145.34 123.024 144.998 122.751C144.629 122.456 144.382 122.069 144.109 121.775C143.566 121.191 143.192 120.806 143.228 120.798C143.274 120.787 143.216 120.564 143.56 120.832C143.974 121.155 144.706 122.028 145.35 122.456C145.714 122.699 146.448 123.252 146.448 123.252C146.448 123.252 147.616 123.657 147.676 123.598C148 123.275 147.347 122.834 146.809 122.567C146.55 122.225 145.763 121.665 145.763 121.665C145.763 121.665 144.416 120.184 144.618 119.999C144.695 119.927 145.497 120.76 146.553 121.428C147.761 122.193 148.447 122.059 148.607 121.874C148.853 121.591 148.093 121.226 148.093 121.226C148.093 121.226 147.05 120.729 146.821 120.539C146.552 120.317 143.599 116.93 143.806 116.77C144.013 116.611 144.555 116.723 144.766 116.835C144.977 116.946 145.342 117.191 145.553 117.303C145.764 117.414 146.213 117.237 146.363 116.994C146.514 116.751 145.773 116.096 145.773 116.096C145.773 116.096 145.022 115.298 144.363 115.075Z" fill="black" fill-opacity="0.2"/>
<path d="M115.883 90.4146C115.883 90.4146 120.095 90.2984 121.705 90.1384C124.831 89.8281 128.024 89.0857 128.024 89.0857C128.024 89.0857 126.553 80.8104 125.903 77.8119C123.518 66.8076 117.662 72.0166 116.627 73.4877C114.313 76.7784 115.883 90.4146 115.883 90.4146Z" fill="#A7E0D5"/>
<path d="M123.079 50.6102C122.923 50.5208 120.23 58.9301 122.031 61.691C123.832 64.452 128.02 65.9887 129.901 64.3947C131.982 62.6316 133.532 53.357 130.512 50.3115C127.492 47.2658 123.079 50.6102 123.079 50.6102Z" fill="#F9B8A7"/>
<path d="M123.079 50.6102C122.923 50.5208 120.23 58.9301 122.031 61.691C123.832 64.452 128.02 65.9887 129.901 64.3947C131.982 62.6316 133.532 53.357 130.512 50.3115C127.492 47.2658 123.079 50.6102 123.079 50.6102Z" fill="black" fill-opacity="0.2"/>
<path d="M130.012 45.471C127.25 45.5414 125.235 46.8552 124.479 47.4333C123.242 47.3615 121.479 47.7366 119.285 50.2307C116.587 53.2976 117.459 57.3745 119.562 59.6696C121.665 61.9643 121.255 64.1272 121.255 64.1272C121.255 64.1272 125.751 62.7385 125.927 59.4118C126 58.0156 125.462 57.6013 126.096 56.6094C126.754 55.5797 126.714 53.7921 127.064 52.3073L127.479 51.4052C127.479 51.4052 129.441 50.3755 131.064 51.0486C132.687 51.7221 133.558 45.3806 130.012 45.471Z" fill="#060614"/>
<path d="M126.614 57.6274C126.446 58.6816 126.083 59.4858 125.47 59.3886C124.856 59.2916 124.756 58.8493 124.512 57.2769C124.284 55.8028 124.952 55.3832 125.565 55.4805C126.179 55.5775 126.782 56.5735 126.614 57.6274Z" fill="#F9B8A7"/>
<path d="M126.614 57.6274C126.446 58.6816 126.083 59.4858 125.47 59.3886C124.856 59.2916 124.756 58.8493 124.512 57.2769C124.284 55.8028 124.952 55.3832 125.565 55.4805C126.179 55.5775 126.782 56.5735 126.614 57.6274Z" fill="black" fill-opacity="0.2"/>
</svg>
