<svg width="330" height="220" viewBox="0 0 330 220" fill="none" xmlns="http://www.w3.org/2000/svg">
<path d="M289.868 23.457H232.404V126.685H289.868V23.457Z" fill="#EBEBEB"/>
<path d="M286.977 26.4531H234.7V123.61H286.977V26.4531Z" fill="#F9F9F9"/>
<path d="M292.296 127.617L289.867 126.684V21.709H292.296V127.617Z" fill="#DFDFDF"/>
<path d="M288.112 54.4023H234.7V55.4363H288.112V54.4023Z" fill="#DFDFDF"/>
<path d="M288.112 77.5371H234.7V78.5711H288.112V77.5371Z" fill="#DFDFDF"/>
<path d="M288.112 100.676H234.7V101.71H288.112V100.676Z" fill="#DFDFDF"/>
<path d="M259.516 126.363H262.156V54.916H259.516V126.363Z" fill="#DFDFDF"/>
<path d="M245.964 26.4531H244.767V54.9211H245.964V26.4531Z" fill="#DFDFDF"/>
<path d="M256.282 26.4531H255.085V54.9211H256.282V26.4531Z" fill="#DFDFDF"/>
<path d="M266.605 26.4531H265.408V54.9211H266.605V26.4531Z" fill="#DFDFDF"/>
<path d="M276.922 26.4531H275.725V54.9211H276.922V26.4531Z" fill="#DFDFDF"/>
<path d="M232.402 21.709H229.974V127.327H232.402V21.709Z" fill="#DFDFDF"/>
<path d="M292.296 20.6406H229.974V23.4566H292.296V20.6406Z" fill="#DFDFDF"/>
<path d="M293.942 127.961H228.25V130.583H293.942V127.961Z" fill="#DFDFDF"/>
<path d="M289.868 126.686L293.942 127.962H228.25L232.404 126.686H289.868Z" fill="#DFDFDF"/>
<path d="M44.9762 152.023H27.2178V156.723H44.9762V152.023Z" fill="#EBEBEB"/>
<path d="M37.4655 161.669C37.4638 161.642 37.4638 161.614 37.4655 161.586V161.344V160.42C37.4655 159.61 37.4655 158.444 37.4347 156.975L37.4875 157.027L19.7115 157.08L19.7995 156.992V159.377V161.687L19.7115 161.599L32.3659 161.639L36.1015 161.665H37.1135H37.4699H37.3907H37.1355H36.1455L32.4319 161.687L19.7115 161.727H19.6235V156.975C19.8039 156.79 19.6719 156.922 19.7159 156.882L37.4699 156.917H37.5271V156.975C37.5271 158.457 37.5271 159.615 37.4963 160.451V161.366V161.595C37.4963 161.652 37.4699 161.674 37.4655 161.669Z" fill="#DFDFDF"/>
<path d="M41.3029 30.5973V30.5137V30.2717V29.3477C41.3029 28.5381 41.3029 27.3721 41.2721 25.9025L41.3249 25.9553L23.5709 25.9905L23.6589 25.9025V30.5973L23.5665 30.5093L36.2253 30.5489L39.9609 30.5753H40.9685H41.3249H41.2457H40.9905H40.0005L36.2869 30.5973L23.5665 30.6369H23.4785V25.9069L23.5709 25.8145L41.3249 25.8497H41.3601V25.9069C41.3601 27.3897 41.3601 28.5469 41.3293 29.3829V30.2981V30.5269C41.3293 30.5841 41.3073 30.6017 41.3029 30.5973Z" fill="#DFDFDF"/>
<path d="M312.597 154.378C312.595 154.35 312.595 154.322 312.597 154.294V154.052V153.128C312.597 152.314 312.597 151.148 312.566 149.678L312.619 149.735L294.86 149.77C294.904 149.731 294.772 149.858 294.952 149.678V152.058V154.368L294.865 154.28L307.519 154.32L311.255 154.347H312.267H312.531H312.276H311.286L307.559 154.44L294.842 154.478H294.755V149.687L294.842 149.6L312.601 149.634H312.658V149.687C312.658 151.174 312.632 152.349 312.627 153.168V154.078V154.312C312.627 154.373 312.601 154.378 312.597 154.378Z" fill="#DFDFDF"/>
<path d="M76.1198 57.9395C76.118 57.9118 76.118 57.8841 76.1198 57.8559V57.6139V56.6899C76.1198 55.8759 76.1198 54.7143 76.0934 53.2403L76.1462 53.2975L58.3878 53.3327L58.4802 53.2403V55.6207V57.9307L58.3922 57.8427L71.0466 57.8823L74.7822 57.9087H75.7942H76.067H75.8162H74.8262L71.1082 57.9351L58.3922 57.9747H58.3042V54.3887V53.7903V53.2403L58.3966 53.1523L76.155 53.1875H76.2122V53.2403C76.2122 54.7275 76.1858 55.8803 76.1814 56.7207V57.6359V57.8647C76.1642 57.8925 76.1436 57.9175 76.1198 57.9395Z" fill="#DFDFDF"/>
<path d="M78.54 53.2407C78.5382 53.2116 78.5382 53.1822 78.54 53.1527V52.9063V51.9603C78.54 51.1375 78.54 49.9759 78.5048 48.5459L78.5708 48.6075L67.9008 48.6339C67.8216 48.7175 68.0108 48.5239 67.9932 48.5459V50.9571V53.2319L67.9052 53.1483L75.5392 53.1879L77.7612 53.2143H78.364H78.5752C78.5109 53.2209 78.4463 53.2209 78.3816 53.2143H77.8008L75.6008 53.2407L67.9096 53.2803H67.826V53.2407V50.9659V48.5547C67.804 48.5547 67.9976 48.3831 67.914 48.4623L78.584 48.4887H78.65V48.5547C78.65 50.0023 78.6236 51.1947 78.6148 52.0087V52.9371C78.5959 53.0396 78.5712 53.1412 78.54 53.2407Z" fill="#DFDFDF"/>
<path d="M310.147 56.403C310.144 56.374 310.144 56.3445 310.147 56.315V56.0774V55.149C310.147 54.3394 310.147 53.1734 310.116 51.7038L310.174 51.7566L292.415 51.7962C292.454 51.7522 292.322 51.8842 292.503 51.7038V56.3942L292.415 56.3062L305.069 56.3458H308.805H309.812H310.076H310.174H309.834H308.844L305.131 56.3722L292.415 56.4118H292.327V56.3238V54.0094V51.6334L292.419 51.541L310.177 51.5762H310.199V51.6334C310.199 53.1162 310.199 54.2734 310.169 55.1138V56.0246V56.3194C310.147 56.3766 310.147 56.403 310.147 56.403Z" fill="#DFDFDF"/>
<path d="M312.554 51.7048C312.551 51.6758 312.551 51.6463 312.554 51.6168V51.366V50.4244C312.554 49.6016 312.554 48.4356 312.52 47.0056L312.585 47.0716L301.884 47.0804C301.805 47.1596 301.994 46.9704 301.972 46.988V49.3992V51.6784L301.889 51.5904L309.523 51.6344H311.723H312.322C312.393 51.6283 312.466 51.6283 312.537 51.6344C312.473 51.6415 312.407 51.6415 312.344 51.6344H311.762H309.562L301.872 51.6784H301.784V49.3112V48.1144V46.9C301.784 46.9 301.955 46.7284 301.876 46.812L312.546 46.834H312.612V46.8956C312.612 48.3432 312.585 49.5356 312.577 50.354V51.2824C312.58 51.4237 312.573 51.5649 312.554 51.7048Z" fill="#DFDFDF"/>
<path d="M44.8888 90.6699H27.1304V95.3691H44.8888V90.6699Z" fill="#DFDFDF"/>
<path d="M57.6578 81.0215H39.8994V85.7207H57.6578V81.0215Z" fill="#EBEBEB"/>
<path d="M50.1598 90.6706C50.1554 90.6416 50.1554 90.6121 50.1598 90.5826V90.3406V89.4166C50.1598 88.607 50.1598 87.441 50.129 85.9714L50.1862 86.0242L32.4278 86.0594L32.5158 85.9714V90.6618L32.4278 90.5694L45.0822 90.6134H48.8178H49.8298H50.0938H50.1862H49.8518H48.8574L45.1438 90.6398L32.4278 90.6794H32.3398V90.5914V88.277V85.901L32.4322 85.8086L50.1906 85.8438H50.2434V85.901C50.2434 87.3838 50.2434 88.563 50.2126 89.3814V90.2922V90.5254C50.2025 90.5764 50.1849 90.6253 50.1598 90.6706Z" fill="#DFDFDF"/>
<path d="M228.514 156.666H210.755V161.366H228.514V156.666Z" fill="#DFDFDF"/>
<path d="M241.282 147.018H223.523V151.717H241.282V147.018Z" fill="#EBEBEB"/>
<path d="M233.772 156.667V156.58V156.342V155.413C233.772 154.604 233.772 153.438 233.741 151.968L233.794 152.021L216.04 152.06C216.079 152.017 215.947 152.148 216.128 151.968V156.658L216.035 156.57L228.694 156.61L232.43 156.632H233.437H233.701H233.794H233.459H232.469L228.756 156.658L216.035 156.698H215.947V151.977L216.04 151.885L233.794 151.919H233.851V151.977C233.851 153.46 233.851 154.639 233.82 155.457V156.368V156.602C233.82 156.663 233.776 156.667 233.772 156.667Z" fill="#DFDFDF"/>
<path d="M91.3396 130.007C91.3378 129.978 91.3378 129.948 91.3396 129.919V129.677V128.753C91.3396 127.943 91.3396 126.777 91.3132 125.307L91.366 125.36L73.6076 125.396C73.6472 125.357 73.5196 125.488 73.7 125.307V127.684V129.998L73.612 129.906L86.2664 129.95L90.002 129.971H91.014H91.278C91.3088 129.968 91.3396 129.968 91.3704 129.971H91.036H90.046L86.328 129.998L73.612 130.037H73.48V125.316C73.6604 125.136 73.5284 125.264 73.568 125.224L91.3264 125.259H91.3836V125.316C91.3836 126.799 91.3572 127.956 91.3528 128.797V129.707V129.941C91.3497 129.963 91.3453 129.985 91.3396 130.007Z" fill="#DFDFDF"/>
<path d="M93.7457 125.308V125.22V124.969V124.028C93.7457 123.205 93.7457 122.039 93.7105 120.609L93.7765 120.675L83.1065 120.701L83.1989 120.609V123.02V125.299L83.1109 125.211L90.7449 125.255L92.9669 125.277H93.5697H93.7809C93.7163 125.282 93.6516 125.282 93.5873 125.277H93.0065L90.8065 125.299L83.1153 125.339H83.0317V125.251V122.972V120.561L83.1197 120.473H93.7897H93.8557V120.539C93.8557 121.986 93.8293 123.179 93.8205 123.997V124.925C93.8047 125.055 93.7796 125.183 93.7457 125.308Z" fill="#DFDFDF"/>
<path d="M308.365 207.138C308.365 207.2 243.042 207.253 162.483 207.253C81.923 207.253 16.5874 207.2 16.5874 207.138C16.5874 207.076 81.8922 207.023 162.483 207.023C243.073 207.023 308.365 207.072 308.365 207.138Z" fill="#253138"/>
<path d="M292.877 190.783L295.702 202.008L300.498 210.235C300.58 210.376 300.633 210.532 300.652 210.693C300.671 210.855 300.658 211.019 300.611 211.175C300.564 211.331 300.486 211.476 300.381 211.6C300.276 211.725 300.147 211.826 300.001 211.898C299.834 211.985 299.648 212.029 299.459 212.029C299.272 212.029 299.086 211.985 298.918 211.898C296.762 210.737 288.86 206.421 288.701 205.589C288.512 204.626 284.931 193.951 284.931 193.951L292.877 190.783Z" fill="#4661E4"/>
<path d="M300.001 211.9L288.49 204.82L288.622 205.291C288.735 205.7 288.989 206.056 289.339 206.294C290.276 206.932 292.908 208.631 298.883 211.891C299.055 211.983 299.247 212.031 299.441 212.031C299.637 212.031 299.829 211.983 300.001 211.891V211.9Z" fill="white"/>
<path d="M289.788 200.587C289.955 200.651 290.091 200.772 290.173 200.93C290.254 201.087 290.274 201.269 290.228 201.441C290.172 201.608 290.054 201.746 289.898 201.828C289.743 201.91 289.561 201.929 289.393 201.881C289.218 201.815 289.074 201.686 288.988 201.519C288.903 201.352 288.882 201.16 288.93 200.979C289.008 200.811 289.147 200.679 289.319 200.611C289.491 200.543 289.683 200.544 289.854 200.614" fill="white"/>
<path d="M296.12 207.728C296.294 207.307 296.545 206.92 296.859 206.588C297.223 206.311 297.637 206.108 298.078 205.99C298.078 205.959 297.915 205.911 297.638 205.946C297.284 206.005 296.954 206.162 296.686 206.4C296.419 206.638 296.224 206.948 296.125 207.293C296.045 207.556 296.076 207.728 296.12 207.728Z" fill="#253138"/>
<path d="M297.312 209.001C297.378 209.032 297.637 208.561 298.165 208.248C298.506 208.081 298.857 207.934 299.217 207.808C299.015 207.75 298.803 207.74 298.597 207.78C298.391 207.82 298.198 207.908 298.033 208.037C297.439 208.411 297.246 209.001 297.312 209.001Z" fill="#253138"/>
<path d="M294.095 206.223C294.801 205.269 295.771 204.542 296.885 204.129C296.268 204.176 295.678 204.397 295.184 204.768C294.69 205.139 294.312 205.644 294.095 206.223Z" fill="#253138"/>
<path d="M292.952 202.884C293.001 202.942 293.547 202.514 294.338 202.264C295.13 202.013 295.821 202.031 295.825 201.956C295.83 201.881 295.113 201.744 294.259 202.022C293.736 202.147 293.273 202.453 292.952 202.884Z" fill="#253138"/>
<path d="M292.036 199.61C292.478 199.318 292.96 199.088 293.466 198.928C293.988 198.844 294.52 198.831 295.045 198.888C295.045 198.862 294.896 198.757 294.605 198.678C294.213 198.584 293.805 198.584 293.412 198.678C293.02 198.772 292.655 198.957 292.348 199.218C292.111 199.421 292.014 199.588 292.036 199.61Z" fill="#253138"/>
<path d="M293.274 198.309C293.271 198.156 293.236 198.007 293.172 197.869C293.025 197.493 292.806 197.15 292.53 196.857C292.346 196.626 292.09 196.463 291.804 196.39C291.706 196.376 291.606 196.393 291.518 196.437C291.43 196.481 291.358 196.551 291.311 196.637C291.234 196.812 291.221 197.008 291.276 197.191C291.404 197.56 291.658 197.871 291.993 198.072C292.327 198.272 292.721 198.35 293.106 198.291C293.485 198.227 293.837 198.052 294.116 197.787C294.396 197.522 294.59 197.18 294.673 196.804C294.694 196.709 294.694 196.611 294.674 196.516C294.653 196.421 294.613 196.331 294.554 196.254C294.489 196.178 294.401 196.127 294.304 196.108C294.206 196.089 294.105 196.103 294.016 196.148C293.759 196.283 293.542 196.484 293.388 196.729C293.153 197.055 292.977 197.42 292.868 197.807C292.816 197.948 292.794 198.098 292.803 198.247C292.974 197.746 293.22 197.272 293.533 196.844C293.676 196.635 293.868 196.464 294.091 196.346C294.14 196.323 294.195 196.317 294.248 196.327C294.301 196.338 294.349 196.364 294.386 196.404C294.42 196.457 294.442 196.518 294.453 196.581C294.462 196.643 294.459 196.707 294.444 196.769C294.358 197.09 294.183 197.38 293.94 197.605C293.696 197.832 293.393 197.984 293.066 198.044C292.739 198.092 292.405 198.026 292.12 197.859C291.835 197.691 291.616 197.43 291.5 197.121C291.455 196.997 291.455 196.862 291.5 196.738C291.524 196.689 291.563 196.65 291.611 196.625C291.66 196.599 291.714 196.59 291.768 196.597C292.011 196.657 292.23 196.79 292.394 196.98C292.763 197.367 293.061 197.817 293.274 198.309Z" fill="#253138"/>
<path d="M255.072 192.557L255.697 201.982C255.697 201.982 246.316 205.097 246.259 206.853L264.594 206.985L264.224 192.254L255.072 192.557Z" fill="#4661E4"/>
<path d="M261.359 201.018C261.537 201.067 261.69 201.179 261.79 201.335C261.89 201.489 261.929 201.676 261.9 201.858C261.858 202.037 261.749 202.194 261.596 202.295C261.442 202.397 261.255 202.436 261.073 202.403C260.888 202.351 260.728 202.233 260.623 202.071C260.519 201.909 260.477 201.714 260.506 201.523C260.568 201.341 260.699 201.19 260.871 201.102C261.042 201.014 261.241 200.996 261.425 201.053" fill="white"/>
<path d="M264.594 206.985L264.559 205.498L246.839 205.991C246.652 206.086 246.491 206.227 246.372 206.4C246.252 206.574 246.178 206.775 246.158 206.985H264.594Z" fill="white"/>
<path d="M255.399 201.899C255.399 201.991 255.839 202.018 256.279 202.291C256.719 202.563 256.974 202.933 257.057 202.898C257.141 202.862 256.987 202.348 256.441 202.018C255.896 201.688 255.377 201.819 255.399 201.899Z" fill="#253138"/>
<path d="M253.502 202.753C253.502 202.841 253.876 202.982 254.188 203.351C254.501 203.721 254.606 204.117 254.694 204.112C254.782 204.108 254.826 203.598 254.426 203.145C254.025 202.691 253.502 202.67 253.502 202.753Z" fill="#253138"/>
<path d="M252.48 205.088C252.559 205.088 252.669 204.648 252.427 204.168C252.184 203.689 251.758 203.504 251.723 203.579C251.688 203.653 251.952 203.909 252.163 204.309C252.375 204.71 252.388 205.079 252.48 205.088Z" fill="#253138"/>
<path d="M255.495 199.733C255.534 199.816 255.935 199.68 256.449 199.698C256.964 199.716 257.356 199.865 257.4 199.785C257.444 199.706 257.052 199.403 256.458 199.386C255.864 199.368 255.446 199.667 255.495 199.733Z" fill="#253138"/>
<path d="M255.2 194.424L255.31 196.104L264.313 195.748L264.277 194.234L255.2 194.424Z" fill="black"/>
<path d="M255.401 197.832C255.705 197.902 256.023 197.891 256.32 197.797C256.649 197.728 256.968 197.62 257.271 197.476C257.451 197.39 257.625 197.29 257.79 197.177C257.892 197.119 257.983 197.043 258.058 196.952C258.115 196.887 258.149 196.805 258.154 196.719C258.158 196.633 258.134 196.548 258.085 196.477C258.038 196.417 257.978 196.367 257.91 196.334C257.841 196.3 257.765 196.283 257.689 196.283C257.572 196.287 257.457 196.306 257.346 196.341C257.152 196.396 256.963 196.468 256.782 196.556C256.476 196.704 256.195 196.9 255.951 197.137C255.537 197.542 255.405 197.881 255.436 197.898C255.467 197.916 255.674 197.639 256.096 197.3C256.343 197.105 256.614 196.943 256.901 196.816C257.071 196.743 257.246 196.683 257.425 196.636C257.614 196.583 257.781 196.574 257.834 196.658C257.887 196.741 257.834 196.706 257.834 196.763C257.775 196.826 257.709 196.881 257.636 196.926C257.22 197.213 256.763 197.436 256.281 197.586C255.982 197.648 255.688 197.73 255.401 197.832Z" fill="#253138"/>
<path d="M255.526 197.955C255.688 197.691 255.763 197.384 255.742 197.075C255.746 196.734 255.692 196.395 255.583 196.072C255.517 195.881 255.433 195.697 255.333 195.522C255.279 195.403 255.196 195.301 255.091 195.224C254.985 195.146 254.863 195.098 254.734 195.082C254.653 195.087 254.575 195.116 254.508 195.163C254.443 195.211 254.391 195.275 254.36 195.35C254.316 195.458 254.288 195.573 254.277 195.689C254.243 195.893 254.243 196.102 254.277 196.305C254.335 196.647 254.479 196.97 254.694 197.242C255.069 197.708 255.447 197.801 255.451 197.77C255.456 197.74 255.201 197.559 254.893 197.119C254.726 196.861 254.618 196.57 254.576 196.265C254.552 196.091 254.552 195.912 254.576 195.738C254.576 195.54 254.668 195.381 254.743 195.398C254.818 195.416 254.994 195.535 255.073 195.689C255.166 195.846 255.247 196.009 255.315 196.178C255.425 196.471 255.494 196.776 255.522 197.088C255.561 197.603 255.473 197.942 255.526 197.955Z" fill="#253138"/>
<path d="M255.027 110.356L282.958 110.145L296.457 198.805L284.864 200.274L270.009 127.375L265.56 200.534L265.547 200.754L253.012 200.534L255.027 110.356Z" fill="#253138"/>
<path d="M269.073 125.466C269.083 125.105 269.06 124.744 269.002 124.388C268.936 123.718 268.865 122.803 268.835 121.787C268.804 120.771 268.835 119.846 268.835 119.183C268.869 118.821 268.869 118.457 268.835 118.096C268.736 118.446 268.68 118.805 268.668 119.169C268.509 120.914 268.562 122.673 268.826 124.405C268.861 124.768 268.943 125.125 269.073 125.466Z" fill="#455A63"/>
<path d="M266.772 118.361C266.772 118.361 266.724 118.308 266.609 118.299C266.451 118.294 266.296 118.342 266.169 118.436C266.065 118.507 265.978 118.602 265.918 118.713C265.856 118.824 265.822 118.947 265.817 119.074C265.83 119.232 265.889 119.382 265.987 119.507C266.084 119.631 266.216 119.724 266.366 119.775C266.516 119.826 266.678 119.833 266.831 119.793C266.984 119.753 267.122 119.67 267.229 119.553C267.303 119.45 267.352 119.331 267.371 119.206C267.391 119.081 267.382 118.953 267.344 118.832C267.296 118.674 267.195 118.537 267.058 118.444C266.961 118.383 266.895 118.383 266.891 118.392C266.886 118.4 267.115 118.524 267.185 118.876C267.206 118.97 267.205 119.068 267.184 119.162C267.163 119.256 267.121 119.345 267.062 119.421C266.982 119.499 266.88 119.554 266.77 119.578C266.66 119.602 266.546 119.596 266.44 119.56C266.333 119.523 266.239 119.458 266.167 119.372C266.095 119.285 266.049 119.18 266.032 119.069C266.033 118.973 266.055 118.879 266.095 118.792C266.135 118.704 266.194 118.627 266.266 118.563C266.512 118.321 266.772 118.392 266.772 118.361Z" fill="#455A63"/>
<path d="M273.926 116.565C273.926 116.565 274.005 116.662 274.181 116.799C274.429 116.993 274.695 117.161 274.978 117.3C275.398 117.512 275.841 117.677 276.298 117.793C276.853 117.932 277.423 118.005 277.996 118.009C278.57 118.003 279.141 117.932 279.699 117.797C280.155 117.68 280.598 117.514 281.019 117.3C281.3 117.162 281.567 116.996 281.815 116.803C281.987 116.667 282.079 116.583 282.071 116.57C282.061 116.557 281.657 116.834 280.948 117.155C280.533 117.341 280.101 117.489 279.659 117.595C278.573 117.85 277.441 117.85 276.355 117.595C275.911 117.493 275.479 117.345 275.066 117.155C274.339 116.829 273.953 116.53 273.926 116.565Z" fill="#455A63"/>
<path d="M256.633 118.443C256.874 118.548 257.136 118.604 257.399 118.605C258.677 118.701 259.947 118.337 260.981 117.58C261.203 117.44 261.395 117.256 261.544 117.039C260.131 118.087 258.386 118.585 256.633 118.443Z" fill="#455A63"/>
<path d="M292.036 199.61C292.005 199.55 291.977 199.486 291.956 199.421C291.917 199.294 291.86 199.096 291.798 198.836C291.676 198.317 291.508 197.547 291.306 196.548C290.91 194.555 290.364 191.668 289.713 188.091C288.393 180.941 286.677 171.054 284.763 160.129C282.849 149.204 281.102 139.326 279.844 132.158C279.197 128.59 278.673 125.699 278.313 123.688C278.123 122.698 277.978 121.928 277.873 121.387C277.82 121.132 277.78 120.947 277.754 120.788L277.706 120.586C277.706 120.586 277.706 120.657 277.727 120.793C277.749 120.93 277.784 121.141 277.823 121.396C277.916 121.933 278.044 122.716 278.216 123.702C278.559 125.717 279.056 128.612 279.672 132.185L284.512 160.169C286.422 171.094 288.186 180.976 289.528 188.122C290.197 191.695 290.764 194.581 291.191 196.566C291.618 198.55 291.953 199.646 292.036 199.61Z" fill="#455A63"/>
<path d="M256.436 198.611V198.404V197.806V195.501C256.436 194.515 256.436 193.27 256.477 191.848C256.516 190.427 256.507 188.804 256.556 187.008C256.626 183.427 256.762 179.164 256.969 174.434C257.176 169.704 257.489 164.502 257.889 159.056C258.289 153.608 258.769 148.416 259.274 143.704C259.781 138.991 260.278 134.758 260.744 131.204C260.964 129.444 261.184 127.824 261.382 126.412C261.58 124.999 261.747 123.772 261.892 122.799C262.038 121.827 262.139 121.039 262.214 120.516C262.249 120.261 262.276 120.076 262.293 119.917C262.297 119.85 262.297 119.783 262.293 119.715C262.293 119.715 262.293 119.781 262.254 119.917C262.214 120.054 262.192 120.256 262.152 120.507C262.064 121.039 261.941 121.805 261.787 122.786C261.633 123.767 261.439 124.986 261.237 126.394C261.034 127.802 260.797 129.408 260.564 131.186C260.08 134.736 259.561 138.969 259.046 143.682C258.531 148.394 258.056 153.582 257.642 159.038C257.229 164.494 256.947 169.69 256.74 174.438C256.534 179.186 256.424 183.436 256.375 187.022C256.34 188.812 256.34 190.432 256.326 191.862C256.314 193.292 256.326 194.502 256.326 195.514V197.819V198.418C256.326 198.576 256.436 198.611 256.436 198.611Z" fill="#455A63"/>
<path d="M208.925 61.2969H194.783V81.1189H208.925V61.2969Z" fill="#455A63"/>
<path d="M208.925 61.2969H194.783V63.5937H208.925V61.2969Z" fill="#253138"/>
<path d="M208.925 78.8223H194.783V81.1191H208.925V78.8223Z" fill="#253138"/>
<path d="M206.135 65.0059H197.542V69.4851H206.135V65.0059Z" fill="#253138"/>
<path d="M203.874 67.2443C203.852 67.2443 203.852 67.0639 203.769 66.7647C203.644 66.3397 203.382 65.9674 203.025 65.7043C202.739 65.4905 202.399 65.3607 202.043 65.329C201.687 65.2973 201.33 65.3655 201.01 65.5252C200.691 65.6849 200.422 65.93 200.235 66.2336C200.046 66.5372 199.946 66.887 199.945 67.2443C199.946 67.635 200.067 68.0161 200.29 68.3368C200.513 68.6576 200.829 68.9031 201.195 69.0399C201.497 69.1521 201.821 69.1878 202.14 69.1429C202.459 69.0985 202.762 68.9748 203.021 68.7843C203.374 68.5207 203.633 68.1503 203.76 67.7283C203.844 67.4247 203.844 67.2443 203.865 67.2443C203.887 67.2443 203.865 67.2887 203.865 67.3767C203.868 67.5026 203.855 67.6284 203.826 67.7507C203.728 68.211 203.471 68.6219 203.1 68.9119C202.823 69.1315 202.494 69.2767 202.145 69.3339C201.797 69.3906 201.44 69.3576 201.107 69.2379C200.696 69.091 200.34 68.8208 200.088 68.464C199.837 68.1071 199.702 67.6808 199.702 67.2443C199.702 66.8078 199.837 66.3819 200.088 66.0251C200.34 65.6682 200.696 65.3981 201.107 65.2511C201.44 65.1332 201.797 65.1015 202.145 65.1583C202.494 65.2155 202.822 65.3598 203.1 65.5771C203.472 65.868 203.729 66.2811 203.826 66.7431C203.855 66.8655 203.869 66.9913 203.865 67.1171C203.887 67.2007 203.883 67.2443 203.874 67.2443Z" fill="#455A63"/>
<path d="M198.532 71.2094C198.532 71.2754 198.512 71.3405 198.476 71.3955C198.439 71.4505 198.387 71.4936 198.325 71.5187C198.264 71.5442 198.197 71.5508 198.132 71.5376C198.068 71.5249 198.008 71.4928 197.961 71.4457C197.915 71.399 197.882 71.3396 197.87 71.2745C197.857 71.2098 197.863 71.1425 197.889 71.0814C197.914 71.0202 197.957 70.9683 198.012 70.9313C198.067 70.8948 198.131 70.875 198.197 70.875C198.286 70.875 198.371 70.9102 198.434 70.9731C198.497 71.0356 198.532 71.121 198.532 71.2094Z" fill="#253138"/>
<path d="M201.054 71.2094C201.054 71.2754 201.034 71.3405 200.998 71.3955C200.96 71.4505 200.909 71.4936 200.847 71.5187C200.786 71.5442 200.719 71.5508 200.654 71.5376C200.589 71.5249 200.53 71.4928 200.483 71.4457C200.436 71.399 200.404 71.3396 200.391 71.2745C200.378 71.2098 200.385 71.1425 200.41 71.0814C200.436 71.0202 200.478 70.9683 200.533 70.9313C200.588 70.8948 200.653 70.875 200.719 70.875C200.807 70.875 200.893 70.9102 200.955 70.9731C201.019 71.0356 201.054 71.121 201.054 71.2094Z" fill="#253138"/>
<path d="M203.575 71.2099C203.575 71.2975 203.54 71.382 203.478 71.4436C203.416 71.5056 203.332 71.5399 203.245 71.5399C203.178 71.5408 203.113 71.5219 203.057 71.4854C203.002 71.4489 202.958 71.3969 202.932 71.3353C202.906 71.2742 202.9 71.2073 202.913 71.1417C202.925 71.0766 202.957 71.0163 203.004 70.9693C203.052 70.9222 203.111 70.8901 203.177 70.8773C203.242 70.8645 203.309 70.8716 203.371 70.8975C203.432 70.9235 203.484 70.9671 203.52 71.0225C203.557 71.0784 203.576 71.1435 203.575 71.2099Z" fill="#253138"/>
<path d="M198.198 73.6786C198.382 73.6786 198.532 73.529 198.532 73.3442C198.532 73.1594 198.382 73.0098 198.198 73.0098C198.013 73.0098 197.863 73.1594 197.863 73.3442C197.863 73.529 198.013 73.6786 198.198 73.6786Z" fill="#253138"/>
<path d="M201.054 73.3422C201.054 73.4082 201.034 73.4733 200.998 73.5283C200.96 73.5833 200.909 73.6265 200.847 73.6515C200.786 73.6771 200.719 73.6832 200.654 73.6705C200.589 73.6573 200.53 73.626 200.483 73.5794C200.436 73.5323 200.404 73.4725 200.391 73.4073C200.378 73.3427 200.385 73.2753 200.41 73.2142C200.436 73.153 200.478 73.1011 200.533 73.0641C200.588 73.0276 200.653 73.0078 200.719 73.0078C200.807 73.0078 200.893 73.043 200.955 73.1059C201.019 73.1684 201.054 73.2538 201.054 73.3422Z" fill="#253138"/>
<path d="M203.245 73.6786C203.43 73.6786 203.579 73.529 203.579 73.3442C203.579 73.1594 203.43 73.0098 203.245 73.0098C203.06 73.0098 202.911 73.1594 202.911 73.3442C202.911 73.529 203.06 73.6786 203.245 73.6786Z" fill="#253138"/>
<path d="M198.198 75.8172C198.382 75.8172 198.532 75.6676 198.532 75.4828C198.532 75.298 198.382 75.1484 198.198 75.1484C198.013 75.1484 197.863 75.298 197.863 75.4828C197.863 75.6676 198.013 75.8172 198.198 75.8172Z" fill="#253138"/>
<path d="M201.054 75.4809C201.054 75.5469 201.034 75.612 200.998 75.667C200.96 75.722 200.909 75.7651 200.847 75.7902C200.786 75.8157 200.719 75.8223 200.654 75.8091C200.589 75.7964 200.53 75.7642 200.483 75.7172C200.436 75.6705 200.404 75.6111 200.391 75.546C200.378 75.4813 200.385 75.414 200.41 75.3528C200.436 75.2917 200.478 75.2398 200.533 75.2028C200.588 75.1663 200.653 75.1465 200.719 75.1465C200.807 75.1465 200.893 75.1817 200.955 75.2446C201.019 75.3071 201.054 75.392 201.054 75.4809Z" fill="#253138"/>
<path d="M203.245 75.8172C203.43 75.8172 203.579 75.6676 203.579 75.4828C203.579 75.298 203.43 75.1484 203.245 75.1484C203.06 75.1484 202.911 75.298 202.911 75.4828C202.911 75.6676 203.06 75.8172 203.245 75.8172Z" fill="#253138"/>
<path d="M205.867 74.5528C206.536 74.5528 207.077 74.0112 207.077 73.3428C207.077 72.6745 206.536 72.1328 205.867 72.1328C205.198 72.1328 204.657 72.6745 204.657 73.3428C204.657 74.0112 205.198 74.5528 205.867 74.5528Z" fill="#4661E4"/>
<path d="M250.366 86.1489C250.366 88.7889 248.225 90.9286 245.586 90.9286C242.946 90.9286 240.806 88.7889 240.806 86.1489C240.806 83.5089 242.946 81.3691 245.586 81.3691C248.225 81.3691 250.366 83.5089 250.366 86.1489Z" fill="#925E46"/>
<path d="M243.394 81.9021L245.009 81.2778L257.121 71.6237C259.417 69.975 262.595 70.3706 264.416 72.5319C266.596 75.1182 265.897 79.0478 262.959 80.7229L248.366 90.2978C247.388 90.721 246.329 90.9226 245.263 90.8874C244.198 90.8522 243.631 90.4315 242.683 89.9449L241.794 89.0556C240.806 87.8632 240.417 85.8511 241.167 84.3221L241.4 83.8408C242.183 82.6721 242.656 82.2766 243.394 81.9021Z" fill="#FFBD9D"/>
<path d="M226.997 76.0376L245.009 81.2771L246.516 81.498C247.522 81.6881 248.784 82.4079 249.376 83.2369L249.625 83.5365C251.072 86.2803 250.067 87.8155 249.292 89.1672L248.297 90.0855C247.307 90.661 246.329 90.9223 245.264 90.8871C244.198 90.8519 243.155 90.5813 242.206 90.0947L224.696 81.8143C223.18 81.0373 222.568 79.1897 223.317 77.6607C223.986 76.2972 225.539 75.6121 226.997 76.0376Z" fill="#FFBD9D"/>
<path d="M226.997 76.0376L245.009 81.2771L246.516 81.498C247.522 81.6881 248.784 82.4079 249.376 83.2369L249.625 83.5365C251.072 86.2803 250.067 87.8155 249.292 89.1672L248.297 90.0855C247.307 90.661 246.329 90.9223 245.264 90.8871C244.198 90.8519 243.155 90.5813 242.206 90.0947L224.696 81.8143C223.18 81.0373 222.568 79.1897 223.317 77.6607C223.986 76.2972 225.539 75.6121 226.997 76.0376Z" fill="black" fill-opacity="0.2"/>
<path d="M223.572 74.499L221.412 73.377L215.401 70.249C215.294 70.2059 215.176 70.1975 215.063 70.2244C214.951 70.2512 214.85 70.3119 214.773 70.3986C214.697 70.4857 214.65 70.594 214.638 70.7088C214.626 70.8241 214.649 70.9398 214.706 71.0406L218.539 74.1914L216.919 74.7986C216.6 74.9214 216.339 75.1576 216.185 75.4626L215.335 77.1566C215.335 77.1566 214.359 77.2626 214.262 77.8918C214.165 78.521 214.895 78.7454 214.895 78.7454L214.71 79.4842C214.668 79.6549 214.663 79.8322 214.694 80.0051C214.725 80.178 214.792 80.3422 214.891 80.4874C215.819 80.8702 216.559 78.9214 216.559 78.9214L217.553 79.0266L218.635 81.2266C220.013 81.561 219.361 79.3874 219.361 79.3874L219.969 79.5418C220.575 79.6914 220.893 80.1222 221.839 80.6062C222.785 81.0902 224.637 81.2622 224.637 81.2622L226.01 82.2738L230.19 76.5586L223.572 74.499Z" fill="#F9F9F9"/>
<path d="M223.572 74.4996L223.691 74.522L224.03 74.6188L225.35 75.01L230.225 76.4972L230.326 76.5284L230.26 76.612L226.12 82.332L226.058 82.4156L225.979 82.3536L224.602 81.3464H224.655C223.728 81.2756 222.815 81.0736 221.944 80.7476C221.507 80.532 221.088 80.279 220.695 79.9908C220.504 79.8531 220.295 79.7417 220.074 79.6608C219.85 79.5992 219.599 79.542 219.362 79.4804L219.493 79.3396C219.615 79.7444 219.666 80.1677 219.643 80.5896C219.638 80.7097 219.608 80.8277 219.557 80.9368C219.506 81.0455 219.433 81.1427 219.344 81.2232C219.239 81.2883 219.122 81.3297 218.999 81.3464C218.878 81.3631 218.754 81.3539 218.636 81.3196H218.587L218.56 81.2668C218.218 80.5716 217.848 79.8324 217.474 79.0668L217.566 79.1332L216.686 79.0404H216.563L216.682 78.97C216.543 79.3193 216.365 79.6515 216.15 79.96C216.051 80.1316 215.919 80.2812 215.761 80.4C215.603 80.5188 215.422 80.6041 215.23 80.6508H215.072C215.019 80.6508 214.97 80.6248 214.918 80.6116H214.882H214.86C214.86 80.6116 214.763 80.5324 214.808 80.572L214.768 80.51L214.702 80.3784C214.624 80.1998 214.583 80.0057 214.583 79.8104C214.593 79.6238 214.626 79.4395 214.68 79.2604L214.808 78.746L214.891 78.8864C214.653 78.8252 214.443 78.6844 214.297 78.4864C214.228 78.3817 214.185 78.262 214.169 78.1379C214.154 78.0134 214.168 77.8876 214.209 77.7692C214.304 77.5461 214.48 77.3666 214.702 77.2672C214.904 77.1699 215.121 77.1066 215.344 77.0784L215.256 77.1396L215.793 76.0704L216.062 75.5468C216.143 75.3571 216.261 75.1851 216.409 75.0408C216.559 74.8973 216.737 74.7878 216.933 74.7196L217.465 74.5172L218.508 74.1216L218.477 74.302L214.653 71.1384C214.588 71.0187 214.561 70.8806 214.577 70.7446C214.594 70.6091 214.653 70.4824 214.746 70.3816C214.834 70.2861 214.95 70.2193 215.077 70.1911C215.204 70.1625 215.338 70.1744 215.459 70.2232L221.416 73.3692L223.031 74.2492L223.449 74.4824C223.499 74.5062 223.546 74.5352 223.59 74.57C223.539 74.5511 223.489 74.5291 223.44 74.504L223 74.2972L221.355 73.47L215.366 70.39C215.278 70.3552 215.181 70.3482 215.088 70.3693C214.995 70.3909 214.911 70.4393 214.847 70.5092C214.781 70.5836 214.74 70.676 214.728 70.7745C214.718 70.8731 214.738 70.9725 214.786 71.0592V71.0328L218.627 74.174L218.763 74.2888L218.596 74.35L217.558 74.7504L217.025 74.9532C216.862 75.0157 216.712 75.1094 216.585 75.23C216.457 75.3563 216.354 75.5054 216.282 75.67L216.018 76.1936L215.48 77.2632L215.454 77.316H215.393C215.023 77.3688 214.574 77.5272 214.447 77.8616C214.418 77.947 214.409 78.0372 214.42 78.1261C214.431 78.2149 214.461 78.3007 214.508 78.3764C214.625 78.5265 214.787 78.6338 214.97 78.684L215.08 78.7152L215.054 78.8204L214.926 79.3356C214.875 79.4953 214.845 79.6612 214.838 79.8284C214.837 79.9921 214.871 80.1531 214.935 80.3032L214.992 80.4092L215.023 80.462C215.072 80.4972 214.962 80.4088 214.975 80.4176H215.001C215.037 80.429 215.074 80.4378 215.111 80.444H215.221C215.542 80.3538 215.814 80.1404 215.978 79.85C216.181 79.5569 216.349 79.241 216.48 78.9088L216.515 78.8252H216.598H216.722L217.602 78.9172H217.668L217.694 78.97C218.063 79.7224 218.433 80.4616 218.776 81.17L218.702 81.1132C218.787 81.1392 218.878 81.1475 218.967 81.1379C219.056 81.1282 219.142 81.1005 219.22 81.056C219.351 80.9297 219.426 80.7577 219.432 80.5764C219.454 80.1857 219.406 79.7937 219.291 79.4192L219.243 79.2296L219.428 79.2784C219.674 79.34 219.903 79.3928 220.158 79.4632C220.399 79.5508 220.625 79.6718 220.831 79.8236C221.216 80.1043 221.624 80.352 222.05 80.5632C222.898 80.8818 223.787 81.0802 224.69 81.1528H224.716H224.738L226.111 82.1692L225.97 82.1908C227.559 80.0304 228.98 78.1036 230.15 76.5064L230.19 76.6252L225.35 75.0672L224.056 74.6272L223.722 74.5132L223.572 74.4996Z" fill="#253138"/>
<path d="M219.52 79.4197C219.52 79.4417 219.04 79.3581 218.226 79.2393C217.412 79.1205 216.259 78.9709 214.904 78.8565H214.926C214.801 78.8569 214.677 78.8266 214.567 78.7676C214.457 78.7087 214.362 78.6233 214.293 78.519C214.224 78.4147 214.182 78.2951 214.17 78.1705C214.158 78.0456 214.177 77.9202 214.226 77.8049C214.334 77.5823 214.497 77.3904 214.699 77.2479C214.902 77.1057 215.138 77.0173 215.384 76.9909C215.902 76.9073 216.378 76.8809 216.844 76.7973C217.31 76.7137 217.76 76.6301 218.164 76.5201C218.569 76.4101 218.982 76.2957 219.348 76.1725C219.517 76.1267 219.675 76.0458 219.81 75.9349C219.865 75.8913 219.903 75.8311 219.92 75.7637C219.937 75.696 219.931 75.6247 219.903 75.5609C219.832 75.4315 219.738 75.3167 219.625 75.2221L219.33 74.9229C219.145 74.7337 218.987 74.5797 218.85 74.4565C218.578 74.2145 218.41 74.1133 218.41 74.0957C218.594 74.1621 218.765 74.262 218.913 74.3905C219.09 74.5278 219.261 74.6747 219.423 74.8305L219.73 75.1165C219.865 75.2186 219.975 75.3475 220.056 75.4949C220.099 75.5904 220.111 75.6969 220.089 75.7989C220.067 75.9015 220.012 75.9934 219.933 76.0625C219.785 76.1967 219.607 76.2961 219.414 76.3529C219.044 76.4849 218.648 76.6125 218.222 76.7269C217.795 76.8413 217.342 76.9381 216.875 77.0173C216.409 77.0965 215.899 77.1361 215.419 77.2153C215.211 77.2333 215.011 77.3042 214.837 77.4212C214.664 77.5383 214.524 77.6975 214.429 77.8841C214.394 77.9642 214.377 78.0513 214.383 78.1389C214.388 78.2264 214.414 78.3109 214.46 78.3857C214.505 78.4609 214.569 78.5234 214.644 78.5687C214.719 78.6141 214.803 78.64 214.89 78.6453C216.255 78.7773 217.408 78.9533 218.217 79.1117C218.622 79.1909 218.943 79.2613 219.159 79.3185C219.284 79.3326 219.406 79.3665 219.52 79.4197Z" fill="#253138"/>
<path d="M219.362 76.3341C219 76.493 218.601 76.5467 218.209 76.4881C218.004 76.4807 217.802 76.4538 217.602 76.4089L217.707 76.3473C217.575 76.6465 217.47 76.8357 217.43 76.8225C217.391 76.8093 217.43 76.5937 217.523 76.2813L217.545 76.2109H217.629L218.222 76.2505C218.604 76.2391 218.986 76.2673 219.362 76.3341Z" fill="#253138"/>
<path d="M260.595 68.4688L249.348 77.0972L257.233 87.4812L266.852 82.0208L260.595 68.4688Z" fill="#4661E4"/>
<path d="M258.769 69.1102C260.396 68.1114 266.023 66.875 266.023 66.875L276.909 65.6914L286.352 70.0254L282.48 86.2746L285.876 116.912L253.471 118.672L258.769 69.1102Z" fill="#4661E4"/>
<path d="M277.687 82.863L272.105 82.7461L272.073 84.2506L277.656 84.3675L277.687 82.863Z" fill="#F9F9F9"/>
<path d="M277.278 84.2202H271.672V82.6934H277.278V84.2202ZM271.694 84.2202H277.256V82.7198H271.694V84.2202Z" fill="#253138"/>
<path d="M257.399 78.5135C257.267 77.689 257.213 76.8539 257.236 76.0187C257.187 75.1854 257.21 74.3489 257.307 73.5195C257.439 74.3441 257.493 75.1797 257.47 76.0143C257.52 76.8477 257.496 77.6841 257.399 78.5135Z" fill="#253138"/>
<path d="M277.829 50.7807L276.636 67.6547C276.537 68.98 275.943 70.2195 274.97 71.1254C273.998 72.0318 272.721 72.5378 271.392 72.5431C270.673 72.5405 269.961 72.3904 269.302 72.1031C268.643 71.8158 268.05 71.3969 267.558 70.872C267.066 70.3475 266.688 69.7275 266.444 69.0508C266.2 68.3745 266.098 67.6551 266.142 66.9375C266.248 65.3315 266.341 64.0203 266.341 64.0203C266.341 64.0203 262.258 63.3823 262.209 59.2991C262.179 56.9407 262.587 51.5859 262.935 47.4895C263.047 46.1519 263.658 44.9054 264.647 43.9977C265.635 43.0895 266.929 42.5861 268.272 42.5879H270.741C271.749 42.6473 272.735 42.9073 273.64 43.3544C274.546 43.801 275.353 44.4245 276.014 45.1883C276.675 45.9517 277.176 46.8401 277.488 47.8006C277.799 48.7611 277.915 49.7744 277.829 50.7807Z" fill="#FFBD9D"/>
<path d="M277.829 50.7807L276.636 67.6547C276.537 68.98 275.943 70.2195 274.97 71.1254C273.998 72.0318 272.721 72.5378 271.392 72.5431C270.673 72.5405 269.961 72.3904 269.302 72.1031C268.643 71.8158 268.05 71.3969 267.558 70.872C267.066 70.3475 266.688 69.7275 266.444 69.0508C266.2 68.3745 266.098 67.6551 266.142 66.9375C266.248 65.3315 266.341 64.0203 266.341 64.0203C266.341 64.0203 262.258 63.3823 262.209 59.2991C262.179 56.9407 262.587 51.5859 262.935 47.4895C263.047 46.1519 263.658 44.9054 264.647 43.9977C265.635 43.0895 266.929 42.5861 268.272 42.5879H270.741C271.749 42.6473 272.735 42.9073 273.64 43.3544C274.546 43.801 275.353 44.4245 276.014 45.1883C276.675 45.9517 277.176 46.8401 277.488 47.8006C277.799 48.7611 277.915 49.7744 277.829 50.7807Z" fill="black" fill-opacity="0.2"/>
<path d="M266.336 63.9589C268.222 63.995 270.075 63.4679 271.66 62.4453C271.66 62.4453 270.402 65.3845 266.327 65.0193L266.336 63.9589Z" fill="#EB996D"/>
<path d="M266.336 63.9589C268.222 63.995 270.075 63.4679 271.66 62.4453C271.66 62.4453 270.402 65.3845 266.327 65.0193L266.336 63.9589Z" fill="black" fill-opacity="0.2"/>
<path d="M263.766 52.6464C263.764 52.7982 263.821 52.9451 263.925 53.0551C264.03 53.1656 264.173 53.2303 264.325 53.236C264.399 53.2426 264.474 53.2342 264.545 53.2113C264.616 53.1885 264.681 53.1511 264.738 53.1022C264.794 53.0534 264.84 52.994 264.873 52.9267C264.905 52.8598 264.924 52.7867 264.928 52.7124C264.93 52.5601 264.871 52.4136 264.766 52.3036C264.661 52.1932 264.517 52.1285 264.365 52.1228C264.291 52.1171 264.216 52.1259 264.146 52.1492C264.076 52.1721 264.011 52.2095 263.955 52.2583C263.9 52.3071 263.853 52.3665 263.821 52.4334C263.789 52.4999 263.771 52.5725 263.766 52.6464Z" fill="#253138"/>
<path d="M263.639 51.5804C263.71 51.6596 264.154 51.3296 264.779 51.334C265.404 51.3384 265.866 51.6464 265.937 51.5716C266.007 51.4968 265.897 51.4 265.694 51.2548C265.423 51.0669 265.1 50.9671 264.77 50.9688C264.442 50.9657 264.123 51.07 263.859 51.2641C263.67 51.4093 263.604 51.5496 263.639 51.5804Z" fill="#253138"/>
<path d="M269.799 52.6508C269.798 52.8026 269.856 52.9491 269.962 53.0587C270.067 53.1682 270.211 53.2316 270.363 53.236C270.436 53.2421 270.511 53.2338 270.581 53.2105C270.652 53.1871 270.716 53.1493 270.772 53.1005C270.828 53.0521 270.873 52.9922 270.906 52.9258C270.938 52.8589 270.957 52.7863 270.961 52.7124C270.963 52.561 270.905 52.4149 270.8 52.3049C270.696 52.1949 270.553 52.1298 270.402 52.1228C270.327 52.1171 270.253 52.1259 270.182 52.1492C270.111 52.1729 270.046 52.2108 269.989 52.2601C269.934 52.3093 269.887 52.3692 269.854 52.4365C269.822 52.5034 269.804 52.5764 269.799 52.6508Z" fill="#253138"/>
<path d="M269.808 51.6997C269.878 51.7745 270.323 51.4493 270.948 51.4493C271.572 51.4493 272.034 51.7657 272.105 51.6909C272.175 51.6161 272.065 51.5193 271.863 51.3697C271.592 51.1818 271.268 51.0832 270.938 51.0881C270.612 51.0863 270.293 51.1879 270.028 51.3785C269.838 51.5281 269.773 51.6645 269.808 51.6997Z" fill="#253138"/>
<path d="M267.584 56.1963C267.254 56.0947 266.913 56.034 266.568 56.0159C266.406 56.0159 266.256 55.9675 266.23 55.8575C266.214 55.6921 266.251 55.5258 266.335 55.3823C266.484 54.9951 266.643 54.5859 266.81 54.1635C267.466 52.4255 267.945 50.9955 267.875 50.9691C267.804 50.9427 267.21 52.3287 266.555 54.0491C266.397 54.4891 266.242 54.8895 266.115 55.2767C266.014 55.4699 265.983 55.693 266.031 55.9059C266.055 55.9627 266.091 56.0133 266.137 56.0546C266.182 56.0956 266.236 56.1259 266.295 56.1435C266.384 56.1668 266.476 56.1787 266.568 56.1787C266.905 56.2311 267.247 56.2368 267.584 56.1963Z" fill="#253138"/>
<path d="M269.645 49.5208C269.707 49.6924 270.331 49.6136 271.071 49.7016C271.81 49.7896 272.391 49.9916 272.501 49.8376C272.545 49.7628 272.439 49.6048 272.197 49.4376C271.877 49.2352 271.514 49.1085 271.137 49.0676C270.761 49.0262 270.379 49.0715 270.022 49.2C269.754 49.3056 269.618 49.4416 269.645 49.5208Z" fill="#253138"/>
<path d="M263.643 50.3497C263.753 50.4949 264.188 50.3497 264.708 50.3497C265.227 50.3497 265.667 50.4421 265.768 50.2925C265.812 50.2221 265.742 50.0813 265.553 49.9449C265.294 49.7834 264.993 49.702 264.689 49.7117C264.384 49.721 264.089 49.8204 263.841 49.9977C263.656 50.1341 263.595 50.2837 263.643 50.3497Z" fill="#253138"/>
<path d="M276.451 53.8481C276.521 53.8173 279.258 53.0165 279.17 55.8105C279.082 58.6045 276.292 57.9357 276.292 57.8565C276.292 57.7773 276.451 53.8481 276.451 53.8481Z" fill="#FFBD9D"/>
<path d="M276.451 53.8481C276.521 53.8173 279.258 53.0165 279.17 55.8105C279.082 58.6045 276.292 57.9357 276.292 57.8565C276.292 57.7773 276.451 53.8481 276.451 53.8481Z" fill="black" fill-opacity="0.2"/>
<path d="M277.2 56.826C277.2 56.826 277.248 56.8612 277.332 56.9008C277.389 56.925 277.45 56.9378 277.512 56.9378C277.574 56.9378 277.635 56.925 277.692 56.9008C277.877 56.793 278.029 56.6377 278.133 56.4516C278.238 56.265 278.29 56.0543 278.286 55.8404C278.3 55.602 278.261 55.363 278.172 55.1408C278.148 55.0524 278.103 54.971 278.041 54.9037C277.979 54.8364 277.902 54.7849 277.816 54.7536C277.761 54.7369 277.701 54.7404 277.648 54.7629C277.595 54.7853 277.552 54.8258 277.525 54.8768C277.486 54.956 277.503 55.0132 277.486 55.0176C277.468 55.022 277.428 54.9692 277.455 54.8504C277.473 54.7836 277.513 54.7242 277.569 54.6832C277.648 54.6269 277.746 54.6032 277.842 54.6172C277.955 54.6432 278.058 54.6973 278.144 54.7743C278.231 54.8509 278.296 54.9486 278.335 55.0572C278.447 55.3036 278.498 55.5751 278.48 55.8453C278.485 56.0939 278.417 56.3376 278.284 56.5475C278.151 56.757 277.959 56.9228 277.732 57.024C277.657 57.0438 277.578 57.0465 277.502 57.0311C277.425 57.0157 277.354 56.9836 277.292 56.936C277.2 56.892 277.169 56.8304 277.2 56.826Z" fill="#EB996D"/>
<path d="M277.2 56.826C277.2 56.826 277.248 56.8612 277.332 56.9008C277.389 56.925 277.45 56.9378 277.512 56.9378C277.574 56.9378 277.635 56.925 277.692 56.9008C277.877 56.793 278.029 56.6377 278.133 56.4516C278.238 56.265 278.29 56.0543 278.286 55.8404C278.3 55.602 278.261 55.363 278.172 55.1408C278.148 55.0524 278.103 54.971 278.041 54.9037C277.979 54.8364 277.902 54.7849 277.816 54.7536C277.761 54.7369 277.701 54.7404 277.648 54.7629C277.595 54.7853 277.552 54.8258 277.525 54.8768C277.486 54.956 277.503 55.0132 277.486 55.0176C277.468 55.022 277.428 54.9692 277.455 54.8504C277.473 54.7836 277.513 54.7242 277.569 54.6832C277.648 54.6269 277.746 54.6032 277.842 54.6172C277.955 54.6432 278.058 54.6973 278.144 54.7743C278.231 54.8509 278.296 54.9486 278.335 55.0572C278.447 55.3036 278.498 55.5751 278.48 55.8453C278.485 56.0939 278.417 56.3376 278.284 56.5475C278.151 56.757 277.959 56.9228 277.732 57.024C277.657 57.0438 277.578 57.0465 277.502 57.0311C277.425 57.0157 277.354 56.9836 277.292 56.936C277.2 56.892 277.169 56.8304 277.2 56.826Z" fill="black" fill-opacity="0.2"/>
<path d="M278.005 53.7497C277.739 53.7326 277.474 53.788 277.237 53.9094C277.001 54.0313 276.802 54.2148 276.662 54.441C276.477 54.8414 276.437 55.2897 276.257 55.6901C276.186 55.8978 276.047 56.0756 275.863 56.1952C275.679 56.3149 275.46 56.369 275.241 56.3501C275.098 56.3026 274.969 56.219 274.867 56.1072C274.766 55.9955 274.694 55.86 274.66 55.7126C274.601 55.4151 274.601 55.108 274.66 54.8101C274.823 53.4901 275.1 52.2146 275.153 50.9034C275.259 49.5838 274.97 48.2625 274.326 47.1062C273.998 46.5342 273.521 46.0607 272.946 45.7369C272.372 45.413 271.721 45.2507 271.061 45.2665C270.181 45.3369 269.397 45.7901 268.535 45.9133C268.022 45.9798 267.501 45.9292 267.01 45.7655C266.519 45.6014 266.072 45.329 265.702 44.9678C265.533 44.8305 265.357 44.7024 265.174 44.585C265.182 44.2695 265.283 43.9632 265.465 43.705C267.176 42.121 270.256 41.681 272.505 42.2486C273.653 42.5315 274.726 43.0612 275.649 43.8004C276.572 44.5396 277.323 45.4711 277.85 46.5298C278.822 48.6462 278.537 51.5942 278 53.7326" fill="#060614"/>
<path d="M262.886 46.8556C262.886 46.8556 273.601 43.4104 278.238 52.6812C278.238 52.6812 278.929 50.358 278.929 49.1172C278.929 48.2856 278.431 43.34 273.345 41.7824C273.345 41.8 265.676 38.8564 262.886 46.8556Z" fill="#4661E4"/>
<path d="M272.096 47.0803C271.905 47.3874 271.646 47.6461 271.339 47.8358C271.032 48.0259 270.685 48.1416 270.325 48.1746C269.965 48.2071 269.603 48.1561 269.266 48.025C268.93 47.8939 268.628 47.6866 268.386 47.4191C268.278 47.6849 268.091 47.9106 267.849 48.0646C267.608 48.2186 267.323 48.2929 267.037 48.278C266.751 48.263 266.476 48.1592 266.252 47.9805C266.028 47.8023 265.865 47.5581 265.786 47.2827C265.495 47.6065 265.14 47.8661 264.743 48.0439C264.543 48.1284 264.322 48.1495 264.11 48.1046C263.897 48.0597 263.704 47.9511 263.555 47.7931C263.434 47.6074 263.377 47.3883 263.39 47.167C263.403 46.9461 263.487 46.7353 263.63 46.5655C263.919 46.2302 264.293 45.9781 264.712 45.8351C265.982 45.2767 267.377 45.0642 268.756 45.2191C270.142 45.385 271.411 46.0762 272.302 47.1507" fill="#060614"/>
<g opacity="0.3">
<path d="M262.886 46.8556C263.78 45.9184 265.003 45.3649 266.296 45.3112C269.456 45.1704 275.369 46.948 278.238 52.6812C278.238 52.6812 278.929 50.358 278.929 49.1172C278.929 48.2856 278.431 43.34 273.345 41.7824C273.345 41.8 265.676 38.8564 262.886 46.8556Z" fill="black"/>
</g>
<path d="M277.789 51.5943C276.164 49.1739 274.033 47.134 271.546 45.6147C269.086 44.0747 265.011 42.5352 262.204 41.8087C261.373 41.5368 260.494 41.4453 259.626 41.5403C259.191 41.5975 258.78 41.7757 258.442 42.0551C258.103 42.3345 257.85 42.7037 257.712 43.1199C257.448 44.1759 259.322 45.8083 260.206 46.4507C261.07 47.0271 261.965 47.556 262.886 48.0347C262.886 48.0347 262.864 46.0723 266.006 45.6675C270.278 45.1043 277.789 51.5943 277.789 51.5943Z" fill="#4661E4"/>
<path d="M269.001 43.5869C268.038 43.0725 266.998 42.7175 265.921 42.5353C266.181 42.3333 266.462 42.1639 266.762 42.0293C267.604 42.1697 268.418 42.4447 269.173 42.8433L269.001 43.5869Z" fill="#DFDFDF"/>
<path d="M269.265 58.3848C269.1 58.4486 268.929 58.4932 268.753 58.5181C268.336 58.6 267.912 58.6487 267.486 58.6639C267.06 58.6781 266.634 58.6596 266.211 58.6087C266.035 58.5952 265.861 58.5625 265.692 58.511C265.871 58.5101 266.049 58.5208 266.226 58.543C267.068 58.6105 267.915 58.5808 268.75 58.4541C268.92 58.42 269.092 58.3969 269.265 58.3848Z" fill="#253138"/>
<path d="M220.77 113.81V78.1309H270.398V113.81L244.094 114.03L220.77 113.81Z" fill="#4661E4"/>
<g opacity="0.4">
<path d="M220.77 113.81H270.402V78.1308H220.77V113.81ZM220.77 113.81H270.402V78.1308H220.77V113.81ZM0 0H330V220H0V0ZM0 220H330V0H0V220Z" fill="black"/>
</g>
<path d="M244.094 114.03L220.77 113.81V78.1309H244.02L244.094 114.03Z" fill="#4661E4"/>
<path d="M233.346 78.1309H230.252V84.3217H233.346V78.1309Z" fill="#253138"/>
<path d="M228.583 105.934H222.423V112.094H228.583V105.934Z" fill="#F9F9F9"/>
<path d="M228.598 112.107H222.411V105.947H228.598V112.107ZM222.438 112.107H228.576V105.947H222.438V112.107Z" fill="#253138"/>
<path d="M282.013 86.324L283.038 94.6268L267.638 103.766L270.032 109.046L287.535 101.975C289.656 100.897 291.469 99.304 291.319 96.9192L290.479 85.2988L282.013 86.324Z" fill="#FFBD9D"/>
<path d="M282.013 86.324L283.038 94.6268L267.638 103.766L270.032 109.046L287.535 101.975C289.656 100.897 291.469 99.304 291.319 96.9192L290.479 85.2988L282.013 86.324Z" fill="black" fill-opacity="0.2"/>
<path d="M286.351 70.0254C287.847 71.3097 288.841 73.0816 289.158 75.0282C289.747 78.2446 291.75 87.2382 291.75 87.2382L281.19 88.4878V86.015C281.19 85.9798 280.204 81.3774 280.204 81.3774L282.171 75.0282L286.351 70.0254Z" fill="#4661E4"/>
<path d="M291.333 87.2784C291.096 87.34 290.855 87.3827 290.611 87.406L288.636 87.6788C286.968 87.8988 284.676 88.1892 282.106 88.4928L281.226 88.5984H281.107V88.4752C280.931 86.1212 280.738 84.0312 280.597 82.5264C280.526 81.8048 280.469 81.2064 280.425 80.7664C280.394 80.5508 280.381 80.333 280.386 80.1152C280.447 80.3251 280.488 80.5403 280.508 80.7576C280.575 81.1712 280.654 81.774 280.751 82.5176C280.931 84.018 281.156 86.1124 281.336 88.4708L281.208 88.3652L282.088 88.2596C284.64 87.9516 286.928 87.6876 288.627 87.5116L290.611 87.3092C290.851 87.2789 291.092 87.2688 291.333 87.2784Z" fill="#253138"/>
<path d="M285.486 70.6074C285.486 70.6426 285.103 70.8054 284.518 71.1662C282.985 72.11 281.794 73.5193 281.12 75.1878C280.861 75.8258 280.769 76.2482 280.729 76.2394C280.747 75.8593 280.827 75.4848 280.966 75.1306C281.579 73.3816 282.815 71.9195 284.439 71.0254C284.762 70.8287 285.116 70.6875 285.486 70.6074Z" fill="#253138"/>
<path d="M267.401 103.303L265.139 104.337L264.171 103.963L259.234 103.655L256.154 104.337L256.066 104.513C256.066 106.189 259.239 105.529 260.211 105.793C261.183 106.057 260.299 108.13 260.299 108.13C260.299 108.13 255.934 113.819 255.173 115.17C254.795 115.852 254.918 116.226 255.138 116.432C255.252 116.53 255.396 116.585 255.545 116.591C255.695 116.595 255.841 116.549 255.961 116.459L257.571 115.319C257.571 115.319 262.006 115.578 262.31 115.429C262.732 115.111 263.096 114.725 263.388 114.285C265.491 112.268 267.848 110.531 270.397 109.12L267.401 103.303Z" fill="#F9F9F9"/>
<path d="M267.401 103.303C267.401 103.303 267.401 103.33 267.458 103.391C267.516 103.453 267.551 103.563 267.616 103.682L268.22 104.816C268.752 105.833 269.518 107.285 270.469 109.089L270.499 109.155L270.433 109.19C267.891 110.619 265.544 112.37 263.45 114.4C263.17 114.831 262.82 115.213 262.417 115.531C262.35 115.574 262.275 115.6 262.197 115.61H261.999H261.601H260.814C259.754 115.584 258.663 115.535 257.546 115.474L257.616 115.451L256.582 116.16L256.054 116.538C255.954 116.615 255.838 116.669 255.714 116.694C255.59 116.72 255.463 116.716 255.341 116.684C255.215 116.649 255.102 116.579 255.012 116.485C254.922 116.391 254.86 116.273 254.83 116.146C254.785 115.904 254.816 115.654 254.918 115.429C255.122 115.02 255.364 114.632 255.64 114.268C257.172 112.068 258.75 110 260.224 108.064V108.086C260.346 107.789 260.443 107.481 260.511 107.166C260.59 106.872 260.602 106.564 260.547 106.264C260.517 106.134 260.438 106.021 260.327 105.948C260.198 105.888 260.059 105.856 259.916 105.851C259.613 105.82 259.301 105.824 258.997 105.82C258.391 105.838 257.786 105.797 257.189 105.696C256.888 105.641 256.605 105.517 256.362 105.332C256.247 105.228 256.155 105.101 256.093 104.961C256.029 104.82 255.997 104.667 255.996 104.513V104.491L256.084 104.315V104.276H256.128L259.208 103.606H259.234L264.167 103.941L265.136 104.324H265.1L266.803 103.576L267.243 103.386L267.384 103.334L267.234 103.413L266.794 103.624L265.136 104.412H265.113L264.141 104.046L259.204 103.765H259.227L256.147 104.46L256.208 104.412L256.12 104.588V104.544C256.121 104.671 256.15 104.795 256.202 104.91C256.253 105.025 256.329 105.128 256.423 105.213C256.642 105.378 256.897 105.486 257.166 105.53C257.749 105.626 258.338 105.665 258.926 105.644C259.234 105.644 259.543 105.644 259.864 105.67C260.038 105.677 260.208 105.719 260.366 105.793C260.523 105.894 260.637 106.052 260.682 106.233C260.751 106.568 260.742 106.915 260.657 107.246C260.584 107.573 260.484 107.894 260.356 108.205C258.887 110.145 257.312 112.204 255.786 114.404C255.527 114.76 255.3 115.136 255.108 115.531C255.024 115.713 254.997 115.914 255.028 116.111C255.05 116.199 255.093 116.281 255.155 116.346C255.216 116.412 255.294 116.46 255.38 116.486C255.47 116.508 255.563 116.509 255.653 116.49C255.743 116.47 255.828 116.429 255.9 116.371L256.431 115.993L257.479 115.254L257.51 115.231H257.55C258.663 115.293 259.75 115.346 260.81 115.376H261.593H261.977H262.161C262.209 115.371 262.256 115.354 262.297 115.328C262.675 115.025 263.004 114.664 263.27 114.259C265.381 112.237 267.748 110.499 270.31 109.089L270.279 109.19L268.127 104.918C267.881 104.421 267.687 104.038 267.546 103.752L267.396 103.444L267.401 103.303Z" fill="#253138"/>
<path d="M261.742 111.5C261.103 112.198 260.423 112.856 259.704 113.471C259.128 114.003 258.599 114.479 258.217 114.818C258.02 115.016 257.8 115.19 257.562 115.337C258.157 114.598 258.822 113.917 259.546 113.304C260.214 112.629 260.95 112.025 261.742 111.5Z" fill="#253138"/>
<path d="M263.085 112.6C262.741 113.179 262.309 113.702 261.804 114.148C261.359 114.654 260.848 115.098 260.286 115.468C260.689 114.933 261.143 114.438 261.641 113.99C262.087 113.491 262.57 113.027 263.085 112.6Z" fill="#253138"/>
<path d="M55.5985 197.053C55.9681 195.623 55.0309 194.184 53.9793 193.146C52.9277 192.108 51.6693 191.179 51.1237 189.806C50.2437 187.58 51.4273 184.703 49.9137 182.845C49.0337 181.754 47.4277 181.389 46.6401 180.205C46.2762 179.562 46.0342 178.856 45.9273 178.124C45.0838 174.426 43.26 171.023 40.6473 168.273C40.4713 171.566 41.1841 174.845 42.7109 177.768C43.3269 178.934 44.0793 180.069 44.2817 181.371C44.6117 183.483 43.4281 185.661 43.9473 187.738C44.5413 190.114 47.2121 191.698 47.3353 194.145C47.4453 196.213 45.6413 198.025 45.7777 200.089C45.8859 200.967 46.201 201.808 46.6973 202.541C48.2945 205.181 50.6573 207.023 54.1773 206.966L58.5333 207.116L55.5985 197.053Z" fill="#4661E4"/>
<g opacity="0.3">
<path d="M55.5985 197.053C55.9681 195.623 55.0309 194.184 53.9793 193.146C52.9277 192.108 51.6693 191.179 51.1237 189.806C50.2437 187.58 51.4273 184.703 49.9137 182.845C49.0337 181.754 47.4277 181.389 46.6401 180.205C46.2762 179.562 46.0342 178.856 45.9273 178.124C45.0838 174.426 43.26 171.023 40.6473 168.273C40.4713 171.566 41.1841 174.845 42.7109 177.768C43.3269 178.934 44.0793 180.069 44.2817 181.371C44.6117 183.483 43.4281 185.661 43.9473 187.738C44.5413 190.114 47.2121 191.698 47.3353 194.145C47.4453 196.213 45.6413 198.025 45.7777 200.089C45.8859 200.967 46.201 201.808 46.6973 202.541C48.2945 205.181 50.6573 207.023 54.1773 206.966L58.5333 207.116L55.5985 197.053Z" fill="black"/>
</g>
<path d="M59.453 207.24C59.8503 207.309 60.2568 207.309 60.6542 207.24C61.1368 207.168 61.6116 207.048 62.071 206.883C62.7068 206.664 63.3016 206.34 63.831 205.924C64.1464 205.67 64.3933 205.34 64.5482 204.965C64.6828 204.538 64.7523 204.093 64.755 203.645C64.7611 203.174 64.795 202.704 64.8562 202.237C64.9424 201.739 65.1232 201.263 65.3886 200.833C65.9034 199.931 66.757 199.073 67.0298 197.855C67.3026 196.636 67.1134 195.347 66.911 194.035C66.7086 192.724 66.515 191.303 67.0122 189.943C67.5094 188.584 68.4378 187.347 68.913 185.812C69.3882 184.276 69.1682 182.595 69.2694 180.95C69.2997 180.114 69.4924 179.292 69.837 178.53C70.189 177.76 70.6774 177.029 71.0602 176.22C71.8346 174.579 71.971 172.7 72.1822 170.896C72.282 169.975 72.3859 169.047 72.4946 168.111C72.5562 167.168 72.7185 166.234 72.9786 165.325C73.2712 164.406 73.6192 163.505 74.0214 162.628C74.2286 162.174 74.398 161.703 74.5274 161.22C74.6 160.723 74.647 160.222 74.6682 159.72C74.7144 158.714 74.6743 157.705 74.5494 156.706C74.4306 155.698 74.2502 154.704 74.1446 153.696V153.52L74.1226 153.322L73.9422 153.41C73.0182 153.881 72.2156 154.558 71.597 155.39C70.9955 156.198 70.511 157.087 70.1582 158.03C69.4322 159.905 69.1682 161.867 68.803 163.75C68.4378 165.633 67.9714 167.464 67.0122 169.03C66.5326 169.805 65.9562 170.513 65.4502 171.27C64.9098 172.006 64.5398 172.854 64.3678 173.751C64.1126 175.595 65.129 177.214 64.9178 178.847C64.8139 179.648 64.5429 180.419 64.1214 181.108C63.7254 181.803 63.2414 182.428 62.8014 183.097C62.3512 183.731 61.9596 184.403 61.631 185.108C61.3225 185.803 61.1421 186.548 61.0986 187.308C60.9886 188.777 61.1998 190.172 61.0986 191.488C60.9784 192.741 60.6137 193.958 60.025 195.069C59.497 196.139 58.9118 197.111 58.419 198.048C58.1726 198.519 57.9482 198.977 57.759 199.439C57.5856 199.884 57.4576 200.345 57.3762 200.816C57.2477 201.639 57.2376 202.476 57.3454 203.302C57.462 204.453 57.8927 205.551 58.5906 206.474C58.6992 206.611 58.8185 206.739 58.947 206.857C59.0336 206.947 59.1296 207.029 59.233 207.099C59.3914 207.218 59.4794 207.271 59.4794 207.271C59.1696 207.023 58.8867 206.745 58.6346 206.439C57.9627 205.516 57.5548 204.427 57.4554 203.289C57.3577 202.473 57.3753 201.648 57.5082 200.838C57.5913 200.377 57.7211 199.926 57.8954 199.491C58.0925 199.024 58.3142 198.567 58.5598 198.123C59.0526 197.19 59.6466 196.227 60.1834 195.149C60.791 194.02 61.169 192.781 61.2966 191.505C61.411 190.159 61.2086 188.76 61.3186 187.325C61.3683 186.597 61.5469 185.884 61.8466 185.218C62.1686 184.525 62.5563 183.865 63.0038 183.247C63.4438 182.6 63.9146 181.953 64.3238 181.245C64.766 180.528 65.0498 179.726 65.1554 178.891C65.3666 177.153 64.359 175.52 64.6186 173.809C64.7884 172.949 65.1457 172.138 65.6658 171.433C66.163 170.689 66.7438 169.981 67.2322 169.184C68.2222 167.587 68.7018 165.708 69.067 163.829C69.4322 161.951 69.7006 160.006 70.4134 158.171C70.7561 157.248 71.2287 156.378 71.817 155.588C72.4088 154.791 73.1766 154.14 74.061 153.687L73.863 153.577V153.753C73.973 154.774 74.1578 155.773 74.2722 156.763C74.3861 157.744 74.4156 158.733 74.3602 159.72C74.3417 160.207 74.2977 160.694 74.2282 161.176C74.1019 161.64 73.9386 162.094 73.7398 162.531C73.3358 163.419 72.9847 164.33 72.6882 165.259C72.4272 166.184 72.2636 167.134 72.1998 168.093C72.0942 169.03 71.993 169.959 71.8874 170.878C71.6806 172.709 71.5442 174.539 70.8006 176.123C70.431 176.911 69.9426 177.641 69.5818 178.437C69.2271 179.228 69.0282 180.08 68.9966 180.945C68.9042 182.626 69.1198 184.272 68.6666 185.759C68.2134 187.246 67.263 188.478 66.7834 189.886C66.3038 191.294 66.4842 192.777 66.691 194.079C66.8978 195.382 67.131 196.667 66.8318 197.824C66.5326 198.981 65.7494 199.843 65.2258 200.772C64.9525 201.217 64.7699 201.712 64.689 202.228C64.6287 202.701 64.5979 203.177 64.5966 203.654C64.597 204.083 64.5332 204.511 64.4074 204.921C64.2622 205.277 64.0307 205.592 63.7342 205.836C63.2255 206.247 62.6531 206.572 62.0402 206.8C61.5883 206.97 61.1214 207.097 60.6454 207.178C60.355 207.23 60.0606 207.258 59.7654 207.262L59.453 207.24Z" fill="#253138"/>
<path d="M73.2209 155.928C73.1984 155.969 73.1835 156.014 73.1769 156.06C73.1505 156.161 73.1197 156.293 73.0801 156.451C72.9965 156.795 72.8953 157.309 72.7281 157.961C72.5609 158.612 72.1649 159.333 71.8481 160.235C71.5313 161.137 71.1397 162.163 70.8097 163.315C70.4797 164.468 70.1849 165.766 69.8769 167.148C69.6129 168.624 69.1434 170.057 68.4821 171.403C68.1257 172.111 67.7209 172.828 67.4041 173.603C67.089 174.406 66.8774 175.245 66.7749 176.102C66.558 177.878 66.2451 179.64 65.8377 181.382C64.9577 184.955 64.1305 188.351 63.3737 191.449L61.3101 199.659C60.7337 201.983 60.2673 203.87 59.9417 205.199L59.5809 206.713C59.5457 206.871 59.5193 206.999 59.4973 207.105C59.4924 207.149 59.4924 207.196 59.4973 207.241C59.4973 207.241 59.4973 207.201 59.5457 207.113C59.5941 207.025 59.6117 206.885 59.6601 206.726C59.7569 206.361 59.8933 205.846 60.0693 205.23C60.4169 203.91 60.9141 202.022 61.5213 199.708C62.1285 197.393 62.8413 194.595 63.6465 191.515C64.4517 188.435 65.2481 185.016 66.1325 181.443C66.5404 179.702 66.8532 177.939 67.0697 176.163C67.1678 175.329 67.3702 174.51 67.6725 173.726C67.9805 172.96 68.3765 172.247 68.7329 171.526C69.3982 170.159 69.8663 168.704 70.1233 167.205C70.4225 165.819 70.7041 164.53 71.0033 163.373C71.3025 162.215 71.6589 161.173 71.9933 160.293C72.3277 159.413 72.6973 158.66 72.8733 157.991C73.0493 157.323 73.1065 156.817 73.1769 156.465C73.2033 156.306 73.2253 156.175 73.2473 156.069C73.2446 156.021 73.2358 155.973 73.2209 155.928Z" fill="#253138"/>
<path d="M60.2223 207.261C63.0691 205.572 63.8831 200.437 62.6995 197.348C61.5159 194.259 59.4303 191.435 59.1135 188.139C58.8671 185.605 59.6943 183.009 59.1135 180.531C58.3171 177.192 55.0567 174.601 55.0919 171.168C55.0919 169.241 56.2095 167.428 56.1259 165.501C56.0159 163.143 54.2031 161.268 53.0811 159.187C51.3651 156.006 51.2507 152.239 50.6655 148.671C50.0803 145.103 48.7163 141.279 45.5527 139.523C45.0863 142.555 44.2855 144.632 44.5363 148.737C44.6287 150.211 46.3403 153.031 46.5735 156.266C46.7143 158.197 46.8111 160.129 46.9255 162.065C47.0399 164.001 47.1631 165.857 47.8363 167.617C48.3555 168.968 49.1871 170.191 49.5699 171.577C50.2915 174.196 49.3411 177.033 49.9263 179.687C50.4191 181.935 51.9767 183.871 52.2935 186.151C52.7335 189.353 50.6655 192.68 51.7259 195.738C52.2539 197.251 53.4859 198.471 53.8555 200.037C54.1283 201.251 53.8291 202.536 54.0799 203.755C54.4803 205.721 58.2291 207.248 60.2399 207.125" fill="#4661E4"/>
<path d="M46.327 142.533C46.3213 142.59 46.3213 142.648 46.327 142.705C46.327 142.832 46.3622 142.995 46.3886 143.202C46.4546 143.642 46.5294 144.28 46.679 145.111C46.8286 145.943 47.2686 146.871 47.6118 148.024C47.955 149.177 48.3334 150.462 48.6546 151.923C48.9758 153.383 49.253 155.003 49.5346 156.736C49.8162 158.47 50.133 160.371 50.9954 162.179C51.3958 163.09 51.8402 164.001 52.179 164.968C52.5064 165.967 52.7075 167.001 52.7774 168.048C52.9389 170.273 53.2183 172.485 53.6139 174.68C54.4939 179.172 55.3167 183.449 56.0691 187.338C56.8215 191.228 57.5827 194.713 58.1899 197.652C58.7971 200.591 59.2938 202.932 59.6414 204.6C59.813 205.405 59.9499 206.038 60.0467 206.487C60.0951 206.69 60.1342 206.852 60.1606 206.976C60.1694 207.032 60.1857 207.086 60.209 207.138C60.2161 207.083 60.2161 207.026 60.209 206.971C60.187 206.843 60.1567 206.681 60.1215 206.474C60.0379 206.034 59.9191 205.387 59.7651 204.578C59.4395 202.914 58.9726 200.538 58.4006 197.612C57.8286 194.686 57.1158 191.171 56.3414 187.29L53.9087 174.631C53.5118 172.447 53.2311 170.244 53.0683 168.031C52.9952 166.965 52.7862 165.912 52.4474 164.898C52.0998 163.904 51.6471 162.993 51.2467 162.091C50.3931 160.305 50.0895 158.443 49.7815 156.71C49.4735 154.976 49.2046 153.353 48.8658 151.892C48.527 150.431 48.1574 149.12 47.779 147.989C47.4006 146.858 46.9738 145.916 46.8022 145.103C46.6306 144.288 46.547 143.638 46.4634 143.206C46.4238 143 46.3979 142.837 46.3715 142.714C46.364 142.652 46.3486 142.591 46.327 142.533Z" fill="#253138"/>
<path d="M188.747 16.7285H180.563V207.134H188.747V16.7285Z" fill="#253138"/>
<path d="M99.5703 206.639V25.2637H180.063V206.639H99.5703Z" fill="#A4C1F4" stroke="black"/>
<path d="M101.355 16.7285H93.813V207.134H101.355V16.7285Z" fill="#253138"/>
<path d="M188.747 16.7285H93.813V24.7629H188.747V16.7285Z" fill="#253138"/>
<path d="M188.76 16.7207C188.76 16.7207 188.664 16.8483 188.457 17.0419L187.577 17.8515L184.642 20.4915C183.507 21.5343 182.49 22.4935 181.795 23.2239C181.517 23.5002 181.257 23.7941 181.016 24.1039C180.955 24.1897 180.899 24.2795 180.85 24.3723C180.827 24.4383 180.814 24.4779 180.805 24.4779C180.796 24.4779 180.805 24.4383 180.805 24.3591C180.837 24.2526 180.883 24.1505 180.942 24.0555C181.156 23.7136 181.402 23.3929 181.676 23.0963C182.566 22.1182 183.504 21.1854 184.488 20.3023C185.632 19.2595 186.688 18.3443 187.471 17.6975C187.858 17.3719 188.18 17.1167 188.404 16.9407C188.515 16.8549 188.634 16.7814 188.76 16.7207Z" fill="#455A63"/>
<path d="M101.354 24.9309C101.31 24.9705 99.5945 23.1709 97.5001 20.9093C95.4057 18.6477 93.7689 16.7733 93.8129 16.7293C93.8569 16.6853 95.5729 18.4893 97.6673 20.7509C99.7617 23.0125 101.403 24.8869 101.354 24.9309Z" fill="#455A63"/>
<path d="M106.348 107.748H106.119C104.669 107.748 103.493 108.924 103.493 110.375V129.48C103.493 130.931 104.669 132.106 106.119 132.106H106.348C107.799 132.106 108.975 130.931 108.975 129.48V110.375C108.975 108.924 107.799 107.748 106.348 107.748Z" fill="#253138"/>
<path d="M107.361 126.12C107.364 125.953 107.322 125.789 107.24 125.643C107.157 125.498 107.036 125.378 106.891 125.295C106.746 125.213 106.581 125.171 106.413 125.174C106.246 125.177 106.083 125.226 105.941 125.314C105.8 125.403 105.684 125.528 105.607 125.676C105.531 125.825 105.495 125.992 105.506 126.158C105.516 126.326 105.571 126.487 105.665 126.625C105.759 126.763 105.889 126.873 106.041 126.944V128.039C106.041 128.149 106.084 128.254 106.162 128.332C106.239 128.409 106.345 128.453 106.454 128.453C106.509 128.454 106.563 128.443 106.614 128.423C106.665 128.403 106.711 128.372 106.749 128.333C106.788 128.295 106.819 128.249 106.84 128.199C106.861 128.148 106.872 128.094 106.872 128.039V126.966C107.024 126.884 107.15 126.762 107.236 126.613C107.322 126.463 107.365 126.293 107.361 126.12Z" fill="#455A63"/>
<path d="M119.865 115.949H107.558C106.788 115.949 106.164 116.574 106.164 117.344V117.467C106.164 118.238 106.788 118.862 107.558 118.862H119.865C120.636 118.862 121.26 118.238 121.26 117.467V117.344C121.26 116.574 120.636 115.949 119.865 115.949Z" fill="#253138"/>
<path d="M111.651 118.946C111.499 118.978 111.343 118.991 111.189 118.986L109.939 119.038C109.316 119.07 108.692 119.049 108.073 118.977C107.701 118.934 107.335 118.842 106.987 118.704C106.595 118.552 106.263 118.277 106.041 117.921C105.936 117.733 105.877 117.524 105.867 117.309C105.857 117.095 105.897 116.881 105.983 116.684C106.073 116.499 106.217 116.345 106.397 116.244C106.56 116.154 106.733 116.082 106.912 116.029C107.517 115.854 108.148 115.78 108.777 115.809C109.305 115.809 109.732 115.835 110.027 115.853C110.175 115.853 110.322 115.869 110.467 115.901C109.899 115.957 109.33 115.98 108.76 115.967C108.15 115.965 107.544 116.052 106.96 116.227C106.795 116.26 106.64 116.328 106.503 116.425C106.367 116.523 106.252 116.649 106.168 116.794C106.098 116.959 106.067 117.137 106.077 117.316C106.086 117.494 106.137 117.668 106.225 117.824C106.416 118.142 106.705 118.388 107.048 118.528C107.376 118.663 107.721 118.754 108.073 118.796C108.681 118.878 109.294 118.916 109.908 118.911C110.489 118.87 111.072 118.881 111.651 118.946Z" fill="#455A63"/>
<path d="M137.571 65.5997V65.4501V65.0321V63.4129C137.571 61.9961 137.571 59.9325 137.544 57.3145C137.544 52.0829 137.514 44.6513 137.492 35.8117L137.593 35.9129H113.393L113.507 35.7985V65.5865L113.41 65.4897L130.94 65.5381L135.846 65.5645H137.144H137.584H137.144H135.864L130.98 65.5909L113.38 65.6393H113.283V65.5469V35.7589V35.6445H113.402H137.602H137.707V35.7457C137.707 44.6117 137.668 52.0697 137.654 57.3057C137.654 59.9105 137.654 61.9697 137.628 63.3821V64.9793V65.3885C137.619 65.4611 137.6 65.5324 137.571 65.5997Z" fill="#253138"/>
<path d="M133.594 61.9121C133.59 61.8743 133.59 61.836 133.594 61.7977V61.4765V60.2313C133.594 59.1401 133.594 57.5605 133.567 55.5629C133.567 51.5633 133.536 45.8829 133.514 39.2037L133.62 39.3049H116.957C116.931 39.3049 117.173 39.0893 117.072 39.1949V40.7658V42.3321V45.4121V51.3257V61.8857L116.979 61.7889L129.066 61.8417H132.436H133.316H133.629H133.334H132.454L129.106 61.8681L116.957 61.9165H116.86V61.8241V51.2641V45.3505V39.2126L116.979 39.0938H133.642H133.743V39.1993C133.721 45.9269 133.704 51.6118 133.69 55.629C133.69 57.6133 133.69 59.1841 133.664 60.2709V61.4941V61.8065C133.594 61.8769 133.594 61.9121 133.594 61.9121Z" fill="#253138"/>
<path d="M137.571 128.481V128.204V127.403V124.323C137.571 121.621 137.571 117.692 137.54 112.755C137.54 102.882 137.509 88.9954 137.492 72.8078L137.597 72.9178H113.397L113.512 72.8034C113.512 94.491 113.512 114.163 113.481 128.494L113.397 128.415L131.068 128.459H135.908H137.166H137.606H137.166H135.925L131.125 128.481L113.402 128.525H113.322V128.481C113.322 114.146 113.322 94.4778 113.287 72.7902V72.6758H137.694V72.7858C137.672 88.9822 137.654 102.913 137.641 112.826C137.641 117.758 137.619 121.679 137.615 124.371V127.451V128.239C137.615 128.419 137.571 128.481 137.571 128.481Z" fill="#253138"/>
<path d="M133.593 125.399V125.153V124.436V121.677C133.593 119.27 133.593 115.776 133.562 111.403C133.562 102.656 133.531 90.3751 133.509 76.2247L133.623 76.3347H116.93L117.044 76.2203C117.044 95.8795 117.013 113.524 117.005 125.395L116.93 125.32L129.153 125.36H132.44H133.293H133.593H133.311H132.471L129.197 125.382L116.93 125.421H116.851V125.399C116.851 113.519 116.829 95.8839 116.811 76.2247V76.1191H133.703V76.2291C133.681 90.4103 133.663 102.717 133.65 111.482C133.65 115.847 133.628 119.332 133.619 121.73V124.466V125.17C133.619 125.338 133.593 125.399 133.593 125.399Z" fill="#253138"/>
<path d="M137.571 199.003V198.726V197.925V194.845C137.571 192.143 137.571 188.214 137.54 183.277C137.54 173.403 137.509 159.495 137.492 143.33L137.597 143.44H113.397L113.512 143.325C113.512 165.013 113.512 184.685 113.481 199.016L113.397 198.933L131.068 198.981H135.908H137.166H137.606H137.166H135.925L131.125 199.003L113.402 199.047H113.322V198.963C113.322 184.628 113.322 164.96 113.287 143.273V143.158H137.694V143.268C137.672 159.465 137.654 173.395 137.641 183.308C137.641 188.241 137.619 192.161 137.615 194.853V197.933V198.721C137.615 198.902 137.571 199.003 137.571 199.003Z" fill="#253138"/>
<path d="M133.593 195.919V195.669V194.956V192.197C133.593 189.791 133.593 186.297 133.562 181.923C133.562 173.176 133.531 160.896 133.509 146.745L133.623 146.855H116.93L117.044 146.741C117.044 166.4 117.013 184.044 117.005 195.915L116.93 195.841L129.153 195.88H132.44H133.293H133.593H133.311H132.471L129.197 195.902L116.93 195.942H116.851V195.867C116.851 183.987 116.829 166.352 116.811 146.693V146.578H133.703V146.688C133.681 160.87 133.663 173.177 133.65 181.941C133.65 186.306 133.628 189.79 133.619 192.189V194.925V195.629C133.619 195.797 133.593 195.919 133.593 195.919Z" fill="#253138"/>
<path d="M117.318 61.8984C116.682 62.5677 115.99 63.1815 115.25 63.7332C114.563 64.3418 113.827 64.8935 113.05 65.3832C113.69 64.7188 114.381 64.1068 115.118 63.5528C115.806 62.9439 116.542 62.3908 117.318 61.8984Z" fill="#253138"/>
<path d="M137.72 65.159C136.952 64.7749 136.24 64.2913 135.599 63.7202C134.913 63.2045 134.295 62.6044 133.76 61.9338C133.808 61.8854 134.64 62.6554 135.744 63.5398C136.849 64.4242 137.746 65.1194 137.72 65.159Z" fill="#253138"/>
<path d="M137.214 36.5195C136.655 37.0678 136.043 37.5601 135.388 37.9891C134.778 38.4811 134.121 38.9118 133.426 39.2739C133.985 38.7257 134.597 38.2338 135.252 37.8043C135.863 37.3137 136.52 36.8839 137.214 36.5195Z" fill="#253138"/>
<path d="M116.997 38.8265C116.281 38.5444 115.607 38.1656 114.995 37.7001C114.342 37.2948 113.75 36.8003 113.235 36.2305C113.89 36.6212 114.524 37.0484 115.131 37.5109C115.779 37.9121 116.402 38.3513 116.997 38.8265Z" fill="#253138"/>
<path d="M116.843 76.2828C115.309 75.3998 114.105 74.0402 113.415 72.4108C113.477 72.38 114.031 73.4096 114.986 74.4744C115.941 75.5392 116.882 76.2256 116.843 76.2828Z" fill="#253138"/>
<path d="M137.28 72.7539C136.763 73.3607 136.188 73.9159 135.564 74.4127C134.991 74.9671 134.367 75.4652 133.699 75.8999C134.217 75.2945 134.792 74.7392 135.415 74.2411C135.987 73.6863 136.612 73.1882 137.28 72.7539Z" fill="#253138"/>
<path d="M116.833 125.637C116.868 125.694 116.068 126.275 115.157 127.084C114.246 127.894 113.564 128.62 113.516 128.576C113.914 127.941 114.417 127.379 115.003 126.913C115.541 126.392 116.159 125.961 116.833 125.637Z" fill="#253138"/>
<path d="M136.894 128.419C135.722 127.551 134.648 126.56 133.69 125.461C134.297 125.868 134.86 126.335 135.371 126.856C135.931 127.323 136.441 127.847 136.894 128.419Z" fill="#253138"/>
<path d="M117.243 147.401C116.514 146.807 115.834 146.155 115.21 145.451C114.534 144.799 113.91 144.094 113.345 143.344C114.074 143.938 114.754 144.589 115.378 145.293C116.058 145.942 116.682 146.647 117.243 147.401Z" fill="#253138"/>
<path d="M137.492 143.172C136.928 143.868 136.308 144.517 135.639 145.112C135.021 145.756 134.348 146.344 133.628 146.872C134.809 145.526 136.101 144.282 137.492 143.154V143.172Z" fill="#253138"/>
<path d="M116.438 195.633C115.55 196.843 114.54 197.96 113.424 198.964C114.312 197.753 115.322 196.637 116.438 195.633Z" fill="#253138"/>
<path d="M137.171 199.004C136.482 198.595 135.851 198.098 135.292 197.526C134.687 197.01 134.15 196.418 133.695 195.766C134.313 196.267 134.9 196.805 135.455 197.376C136.059 197.884 136.632 198.427 137.171 199.004Z" fill="#253138"/>
<path d="M169.756 65.5997V65.4501V65.0321V63.4129C169.756 61.9961 169.756 59.9325 169.73 57.3145C169.73 52.0829 169.699 44.6513 169.677 35.8117L169.779 35.9129H145.601L145.715 35.7985V65.5865L145.618 65.4897L163.152 65.5381L168.054 65.5645H169.374H169.814H169.374H168.093L163.209 65.5909L145.609 65.6393H145.512V65.5469V35.7589V35.6445H145.631H169.809H169.915V35.7457C169.893 44.6117 169.875 52.0697 169.862 57.3057C169.862 59.9105 169.84 61.9697 169.836 63.3821V64.9793V65.3885C169.82 65.4625 169.793 65.5333 169.756 65.5997Z" fill="#253138"/>
<path d="M165.779 61.9121C165.776 61.8743 165.776 61.836 165.779 61.7977V61.4765V60.2313C165.779 59.1401 165.778 57.5605 165.752 55.5629C165.752 51.5633 165.721 45.8829 165.699 39.2037L165.805 39.3049H149.142C149.115 39.3049 149.358 39.0893 149.257 39.1949V40.7658V42.3321V45.4121V51.3257V61.8857L149.164 61.7889L161.251 61.8417H164.621H165.501H165.813H165.519H164.639L161.29 61.8681L149.142 61.9165H149.045V61.8241V51.2641V45.3505V42.2706V40.7041V39.2126L149.164 39.0938H165.827H165.879V39.1993C165.858 45.9269 165.84 51.6118 165.827 55.629C165.827 57.6133 165.827 59.1841 165.801 60.2709V61.4941V61.8065C165.779 61.8769 165.779 61.9121 165.779 61.9121Z" fill="#253138"/>
<path d="M169.757 128.481V128.204V127.403V124.323C169.757 121.621 169.757 117.692 169.726 112.755C169.726 102.882 169.695 88.9954 169.677 72.8078L169.783 72.9178H145.583L145.697 72.8034C145.697 94.491 145.676 114.163 145.667 128.494L145.583 128.415L163.254 128.459H168.094H169.351H169.791H169.374L168.08 128.481L163.28 128.503L145.557 128.547H145.477V128.481C145.477 114.146 145.456 94.4778 145.442 72.7902V72.6758H169.85V72.7858C169.827 88.9822 169.809 102.913 169.796 112.826C169.796 117.758 169.774 121.679 169.77 124.371V127.451V128.239C169.77 128.419 169.757 128.481 169.757 128.481Z" fill="#253138"/>
<path d="M165.779 125.399V125.153V124.436V121.677C165.779 119.27 165.779 115.776 165.748 111.403C165.748 102.656 165.717 90.3751 165.696 76.2247L165.809 76.3347H149.116L149.231 76.2203C149.231 95.8795 149.199 113.524 149.191 125.395L149.116 125.32L161.34 125.36H164.626H165.479H165.779H165.497H164.657L161.388 125.382L149.116 125.421H149.037V125.399C149.037 113.519 149.015 95.8839 148.997 76.2247V76.1191H165.88V76.2291C165.88 90.4103 165.841 102.717 165.827 111.482C165.827 115.847 165.827 119.332 165.796 121.73V124.466V125.17C165.796 125.338 165.779 125.399 165.779 125.399Z" fill="#253138"/>
<path d="M169.757 199.003V198.726V197.925V194.845C169.757 192.143 169.757 188.214 169.726 183.277C169.726 173.403 169.695 159.495 169.678 143.33L169.784 143.44H145.584L145.698 143.325C145.698 165.013 145.676 184.685 145.667 199.016L145.584 198.933L163.254 198.981H168.094H169.352H169.792H169.374H168.134L163.333 199.003L145.61 199.047H145.53V198.963C145.53 184.628 145.509 164.96 145.495 143.273V143.158H169.902V143.268C169.88 159.465 169.862 173.395 169.85 183.308C169.85 188.241 169.827 192.161 169.823 194.853V197.933V198.721C169.823 198.902 169.757 199.003 169.757 199.003Z" fill="#253138"/>
<path d="M165.779 195.919V195.669V194.956V192.197C165.779 189.791 165.779 186.297 165.748 181.923C165.748 173.176 165.717 160.896 165.696 146.745L165.809 146.855H149.116L149.231 146.741C149.231 166.4 149.199 184.044 149.191 195.915L149.116 195.841L161.34 195.88H164.626H165.479H165.779H165.497H164.657L161.388 195.902L149.116 195.942H149.037V195.867C149.037 183.987 149.015 166.352 148.997 146.693V146.578H165.88V146.688C165.88 160.87 165.841 173.177 165.827 181.941C165.827 186.306 165.827 189.79 165.796 192.189V194.925V195.629C165.796 195.797 165.779 195.919 165.779 195.919Z" fill="#253138"/>
<path d="M149.503 61.8984C148.868 62.5677 148.175 63.1815 147.435 63.7332C146.748 64.3418 146.012 64.8935 145.235 65.3832C145.875 64.7188 146.566 64.1068 147.303 63.5528C147.992 62.9439 148.727 62.3908 149.503 61.8984Z" fill="#253138"/>
<path d="M169.898 65.159C169.13 64.7749 168.417 64.2913 167.777 63.7202C167.091 63.2045 166.473 62.6044 165.938 61.9338C165.986 61.8854 166.817 62.6554 167.922 63.5398C169.027 64.4242 169.933 65.1194 169.898 65.159Z" fill="#253138"/>
<path d="M169.401 36.5195C168.841 37.0678 168.23 37.5601 167.575 37.9891C166.964 38.4811 166.307 38.9118 165.612 39.2739C166.173 38.727 166.784 38.2351 167.438 37.8043C168.049 37.3137 168.706 36.8839 169.401 36.5195Z" fill="#253138"/>
<path d="M149.182 38.8265C148.466 38.5444 147.792 38.1656 147.18 37.7001C146.527 37.2948 145.935 36.8003 145.42 36.2305C146.076 36.6212 146.709 37.0484 147.316 37.5109C147.964 37.9121 148.587 38.3513 149.182 38.8265Z" fill="#253138"/>
<path d="M149.028 76.2828C147.495 75.3998 146.291 74.0402 145.601 72.4108C145.662 72.38 146.217 73.4096 147.171 74.4744C148.126 75.5392 149.068 76.2256 149.028 76.2828Z" fill="#253138"/>
<path d="M169.457 72.7539C168.94 73.3607 168.365 73.9159 167.742 74.4127C167.17 74.9667 166.546 75.4647 165.88 75.8999C166.399 75.2945 166.973 74.7392 167.596 74.2411C168.167 73.6863 168.79 73.1882 169.457 72.7539Z" fill="#253138"/>
<path d="M149.02 125.637C149.055 125.694 148.254 126.275 147.343 127.084C146.433 127.894 145.751 128.62 145.702 128.576C146.1 127.941 146.603 127.379 147.189 126.913C147.727 126.392 148.345 125.961 149.02 125.637Z" fill="#253138"/>
<path d="M169.078 128.419C167.907 127.551 166.832 126.56 165.875 125.461C166.482 125.868 167.045 126.335 167.556 126.856C168.116 127.323 168.626 127.847 169.078 128.419Z" fill="#253138"/>
<path d="M149.428 147.401C148.699 146.807 148.019 146.155 147.395 145.451C146.719 144.799 146.096 144.094 145.53 143.344C146.26 143.936 146.94 144.588 147.563 145.293C148.243 145.942 148.867 146.647 149.428 147.401Z" fill="#253138"/>
<path d="M169.678 143.172C169.116 143.869 168.496 144.519 167.826 145.112C167.207 145.756 166.534 146.344 165.815 146.872C166.995 145.526 168.287 144.282 169.678 143.154V143.172Z" fill="#253138"/>
<path d="M148.624 195.633C147.736 196.843 146.726 197.96 145.61 198.964C146.021 198.33 146.497 197.74 147.031 197.204C147.509 196.629 148.043 196.102 148.624 195.633Z" fill="#253138"/>
<path d="M169.356 199.004C168.668 198.595 168.036 198.098 167.477 197.526C166.872 197.01 166.335 196.418 165.88 195.766C166.498 196.267 167.085 196.805 167.64 197.376C168.244 197.884 168.816 198.427 169.356 199.004Z" fill="#253138"/>
<path d="M217.215 168.34H163.245V207.139H217.215V168.34Z" fill="#4661E4"/>
<path d="M177.72 168.34C177.795 168.34 177.72 176.533 177.72 176.533H173.725V168.34H177.72Z" fill="#253138"/>
<g opacity="0.4">
<path d="M190.229 207.139H217.214V168.34H190.229V207.139ZM190.229 207.139H217.214V168.34H190.229V207.139ZM0 0H330V220H0V0ZM0 220H330V0H0V220Z" fill="black"/>
</g>
<path d="M172.115 199.545H164.89V204.658H172.115V199.545Z" fill="#F9F9F9"/>
<path d="M172.124 204.666H164.877V199.531H172.124V204.666ZM164.899 204.666H172.102V199.553H164.899V204.666Z" fill="#253138"/>
<path d="M177.06 199.545H173.448V204.658H177.06V199.545Z" fill="#F9F9F9"/>
<path d="M177.069 204.666H173.435V199.531H177.069V204.666ZM173.461 204.666H177.047V199.553H173.461V204.666Z" fill="#253138"/>
<g style="mix-blend-mode:darken">
<path d="M215.225 64.9017C215.226 64.9008 215.226 64.9004 215.226 64.9004" stroke="#4661E4" stroke-width="0.6"/>
</g>
<g style="mix-blend-mode:darken">
<path d="M206.466 60.9111C206.466 60.9098 206.466 60.9091 206.466 60.9091" stroke="#4661E4" stroke-width="0.6"/>
</g>
<g style="mix-blend-mode:darken">
<path d="M197.452 64.2852C197.451 64.2842 197.45 64.2837 197.45 64.2837" stroke="#4661E4" stroke-width="0.6"/>
</g>
<g style="mix-blend-mode:darken">
<path d="M193.462 73.044C193.461 73.044 193.46 73.0439 193.46 73.0439" stroke="#4661E4" stroke-width="0.6"/>
</g>
<g style="mix-blend-mode:darken">
<path d="M196.835 82.0592C196.834 82.0601 196.834 82.0605 196.834 82.0605" stroke="#4661E4" stroke-width="0.6"/>
</g>
<g style="mix-blend-mode:darken">
<path d="M205.594 86.0479C205.594 86.0492 205.594 86.0499 205.594 86.0499" stroke="#4661E4" stroke-width="0.6"/>
</g>
<g style="mix-blend-mode:darken">
<path d="M214.609 82.6738C214.609 82.6748 214.61 82.6753 214.61 82.6753" stroke="#4661E4" stroke-width="0.6"/>
</g>
<g style="mix-blend-mode:darken">
<path d="M218.598 73.915C218.599 73.915 218.6 73.9151 218.6 73.9151" stroke="#4661E4" stroke-width="0.6"/>
</g>
<g style="mix-blend-mode:darken">
<path d="M215.225 64.9017C215.226 64.9008 215.226 64.9004 215.226 64.9004" stroke="#4661E4" stroke-width="0.6"/>
</g>
</svg>
