<svg width="110" height="39" viewBox="0 0 110 39" fill="none" xmlns="http://www.w3.org/2000/svg">
<path d="M20.7979 12.0957V12.1442V38.0807H27.3911V12.0957H20.7979Z" fill="white"/>
<path d="M103.407 12.0957V12.1442V38.0807H110V12.0957H103.407Z" fill="white"/>
<path d="M57.5207 27.8028H37.8622C38.7348 31.0752 41.1831 32.6507 45.1341 32.6507C46.245 32.723 47.3568 32.5247 48.3743 32.073C49.3917 31.6213 50.2845 30.9295 50.9759 30.0571L56.4056 33.184C55.1562 35.0027 53.4625 36.4719 51.4856 37.4519C49.5086 38.4319 47.3139 38.8902 45.1099 38.7834C43.2063 38.8713 41.3047 38.5706 39.521 37.8997C37.7373 37.2287 36.109 36.2016 34.7353 34.8808C33.4422 33.5914 32.4267 32.0509 31.7513 30.3542C31.076 28.6575 30.7551 26.8406 30.8084 25.0152C30.7814 23.2229 31.1103 21.443 31.776 19.7786C32.4418 18.1143 33.4311 16.5986 34.6868 15.3193C35.9691 14.0013 37.5147 12.9683 39.2229 12.2875C40.9311 11.6067 42.7635 11.2935 44.6009 11.3682C46.3655 11.3001 48.1237 11.6184 49.7525 12.3009C51.3813 12.9834 52.8412 14.0135 54.0301 15.3193C56.5339 17.9646 57.8852 21.4955 57.7873 25.1364C57.76 26.0303 57.6709 26.9212 57.5207 27.8028ZM37.7653 22.5912H51.0486C50.8017 21.0764 50.0104 19.7037 48.8233 18.7307C47.6361 17.7578 46.1347 17.2516 44.6009 17.307C42.9919 17.2403 41.4089 17.7281 40.1165 18.6886C38.8939 19.6688 38.0603 21.0523 37.7653 22.5912Z" fill="white"/>
<path d="M67.8957 38.0807H61.1328V0H67.8957V38.0807Z" fill="white"/>
<path d="M79.1429 38.0807H72.4043V0H79.1429V38.0807Z" fill="white"/>
<path d="M27.294 25.0876C27.2987 27.7877 26.5024 30.4286 25.0058 32.676C23.5092 34.9235 21.3795 36.6764 18.8863 37.713C16.393 38.7496 13.6483 39.0234 10.9995 38.4995C8.35061 37.9757 5.91669 36.6779 4.0057 34.7703C2.09471 32.8627 0.792548 30.4311 0.264008 27.7831C-0.264531 25.1352 0.00430515 22.39 1.0365 19.895C2.06869 17.3999 3.81784 15.2671 6.0626 13.7665C8.30735 12.2658 10.9468 11.4648 13.647 11.4648C17.2622 11.4648 20.7297 12.8993 23.2883 15.4534C25.8469 18.0074 27.2875 21.4724 27.294 25.0876ZM6.66592 25.0876C6.66592 26.4683 7.07535 27.818 7.84244 28.966C8.60952 30.1141 9.69982 31.0089 10.9754 31.5372C12.2511 32.0656 13.6547 32.2039 15.0089 31.9345C16.3631 31.6651 17.607 31.0003 18.5833 30.0239C19.5596 29.0476 20.2245 27.8037 20.4939 26.4495C20.7632 25.0953 20.625 23.6917 20.0966 22.4161C19.5682 21.1404 18.6735 20.0501 17.5254 19.2831C16.3774 18.516 15.0277 18.1065 13.647 18.1065C11.7955 18.1065 10.0198 18.842 8.71062 20.1512C7.40142 21.4604 6.66592 23.2361 6.66592 25.0876Z" fill="#D8A28F"/>
<path d="M109.903 25.0876C109.908 27.7877 109.112 30.4286 107.615 32.676C106.119 34.9235 103.989 36.6764 101.496 37.713C99.0024 38.7496 96.2577 39.0234 93.6088 38.4995C90.96 37.9757 88.5261 36.6779 86.6151 34.7703C84.7041 32.8627 83.4019 30.4311 82.8734 27.7831C82.3448 25.1352 82.6137 22.39 83.6459 19.895C84.6781 17.3999 86.4272 15.2671 88.672 13.7665C90.9167 12.2658 93.5562 11.4648 96.2563 11.4648C99.8716 11.4648 103.339 12.8993 105.898 15.4534C108.456 18.0074 109.897 21.4724 109.903 25.0876ZM89.2753 25.0876C89.2753 26.4683 89.6847 27.818 90.4518 28.966C91.2189 30.1141 92.3092 31.0089 93.5848 31.5372C94.8604 32.0656 96.2641 32.2039 97.6183 31.9345C98.9725 31.6651 100.216 31.0003 101.193 30.0239C102.169 29.0476 102.834 27.8037 103.103 26.4495C103.373 25.0953 103.234 23.6917 102.706 22.4161C102.178 21.1404 101.283 20.0501 100.135 19.2831C98.9868 18.516 97.6371 18.1065 96.2563 18.1065C94.4068 18.1129 92.6349 18.8505 91.3271 20.1583C90.0192 21.4661 89.2817 23.2381 89.2753 25.0876Z" fill="#D8A28F"/>
</svg>
