<svg width="160" height="25" viewBox="0 0 160 25" fill="none" xmlns="http://www.w3.org/2000/svg">
<path d="M20.45 10.65C20.45 7.65 18.875 5.9 16.175 5.9C14.25 5.9 12.6 6.8 11.925 8.275C11.325 6.75 9.925 5.9 8.125 5.9C6.35 5.9 4.875 6.775 4.175 8.1V6.25H0.7V19H4.25V11.775C4.25 10.1 5.2 9.125 6.775 9.125C8.175 9.125 8.8 9.9 8.8 11.525V19H12.35V11.775C12.35 10.075 13.3 9.125 14.9 9.125C16.3 9.125 16.9 9.9 16.9 11.525V19H20.45V10.65ZM31.6469 6.25V12.925C31.6469 14.625 30.6469 15.6 29.0469 15.6C27.5719 15.6 26.9219 14.825 26.9219 13.15V6.25H23.3719V14.075C23.3719 17.075 25.0219 18.825 27.6969 18.825C29.5219 18.825 30.9969 18 31.6969 16.675V17.7C31.6969 19.975 30.3719 21.225 28.1469 21.225C26.8469 21.225 25.4719 20.8 24.3969 20.025L22.9219 22.65C24.1969 23.725 26.1719 24.35 28.3719 24.35C32.7469 24.35 35.1719 21.975 35.1719 17.7V6.25H31.6469ZM53.7633 1.5L48.4133 10.7L43.0633 1.5H38.7133V19H42.3383V6.8L47.0133 14.775H49.8133L54.4883 6.8V19H58.1133V1.5H53.7633ZM73.6531 13.675C73.7031 13.25 73.7281 12.825 73.7281 12.45C73.7281 8.5 71.2281 5.9 67.4531 5.9C63.5531 5.9 60.9281 8.725 60.9281 12.675C60.9281 16.725 63.6781 19.35 67.8031 19.35C70.1281 19.35 72.0281 18.525 73.2531 17.05L71.2281 14.95C70.3781 15.875 69.2781 16.325 67.9281 16.325C66.0281 16.325 64.8281 15.45 64.5031 13.675H73.6531ZM64.5031 11.375C64.8031 9.775 65.8531 8.9 67.4781 8.9C69.1031 8.9 70.0781 9.775 70.2031 11.375H64.5031ZM85.3754 0.699999V8.05C84.6004 6.675 83.0504 5.9 81.2504 5.9C77.9254 5.9 75.5004 8.675 75.5004 12.625C75.5004 16.575 77.9254 19.35 81.2504 19.35C83.0754 19.35 84.7004 18.5 85.4254 17.1V19H88.9254V0.699999H85.3754ZM85.5004 12.625C85.5004 14.75 84.2754 16.15 82.3004 16.15C80.3254 16.15 79.1004 14.75 79.1004 12.625C79.1004 10.5 80.3254 9.1 82.3004 9.1C84.2754 9.1 85.5004 10.5 85.5004 12.625ZM91.7893 2.25C91.7893 3.525 92.6643 4.375 93.9893 4.375C95.3143 4.375 96.1893 3.525 96.1893 2.25C96.1893 0.975 95.3143 0.124999 93.9893 0.124999C92.6643 0.124999 91.7893 0.975 91.7893 2.25ZM92.2143 19H95.7643V6.25H92.2143V19ZM98.3461 12.625C98.3461 16.575 101.021 19.35 105.021 19.35C107.521 19.35 109.621 18.275 110.646 16.4L107.996 14.55C107.296 15.625 106.296 16.125 105.121 16.125C103.221 16.125 101.946 14.75 101.946 12.625C101.946 10.5 103.221 9.125 105.121 9.125C106.296 9.125 107.296 9.625 107.996 10.7L110.646 8.825C109.621 7 107.521 5.9 105.021 5.9C101.021 5.9 98.3461 8.65 98.3461 12.625ZM112.267 2.25C112.267 3.525 113.142 4.375 114.467 4.375C115.792 4.375 116.667 3.525 116.667 2.25C116.667 0.975 115.792 0.124999 114.467 0.124999C113.142 0.124999 112.267 0.975 112.267 2.25ZM112.692 19H116.242V6.25H112.692V19ZM131.474 10.65C131.474 7.625 129.824 5.9 127.099 5.9C125.224 5.9 123.724 6.725 123.024 8.1V6.25H119.549V19H123.099V11.8C123.099 10.1 124.074 9.125 125.749 9.125C127.249 9.125 127.924 9.9 127.924 11.575V19H131.474V10.65ZM146.658 13.675C146.708 13.25 146.733 12.825 146.733 12.45C146.733 8.5 144.233 5.9 140.458 5.9C136.558 5.9 133.933 8.725 133.933 12.675C133.933 16.725 136.683 19.35 140.808 19.35C143.133 19.35 145.033 18.525 146.258 17.05L144.233 14.95C143.383 15.875 142.283 16.325 140.933 16.325C139.033 16.325 137.833 15.45 137.508 13.675H146.658ZM137.508 11.375C137.808 9.775 138.858 8.9 140.483 8.9C142.108 8.9 143.083 9.775 143.208 11.375H137.508ZM148.23 17.075C149.505 18.5 151.63 19.35 154.13 19.35C157.555 19.35 159.63 17.725 159.63 15.125C159.63 13.25 158.555 12.075 155.93 11.475L153.73 10.95C152.63 10.725 152.23 10.4 152.23 9.9C152.23 9.275 152.83 8.875 154.03 8.875C155.305 8.875 156.53 9.325 157.705 10.2L159.43 7.85C158.255 6.65 156.305 5.9 154.08 5.9C150.755 5.9 148.705 7.55 148.705 10.025C148.705 11.825 149.83 13.05 152.43 13.65L154.555 14.15C155.63 14.375 156.08 14.75 156.08 15.325C156.08 16 155.38 16.4 154.155 16.4C152.58 16.4 150.98 15.75 149.955 14.75L148.23 17.075Z" fill="#652D90"/>
</svg>
